<?xml version="1.0" encoding="utf-8"?>
<svg version="1.1" xmlns:xlink="http://www.w3.org/1999/xlink" width="113px" height="95px" xmlns="http://www.w3.org/2000/svg">
  <g transform="matrix(1 0 0 1 -705 -330 )">
    <path d="M 108.518028846154 21.7258522727273  C 111.506009615385 24.6946022727273  113 28.2481060606061  113 32.3863636363636  L 113 79.8863636363636  C 113 84.0246212121212  111.506009615385 87.578125  108.518028846154 90.546875  C 105.530048076923 93.515625  101.953525641026 95  97.7884615384615 95  L 15.2115384615385 95  C 11.0464743589744 95  7.46995192307693 93.515625  4.48197115384615 90.546875  C 1.49399038461538 87.578125  0 84.0246212121212  0 79.8863636363636  L 0 15.1136363636364  C 0 10.9753787878788  1.49399038461538 7.421875  4.48197115384615 4.453125  C 7.46995192307693 1.484375  11.0464743589744 0  15.2115384615385 0  L 36.9423076923077 0  C 41.1073717948718 0  44.6838942307692 1.484375  47.671875 4.453125  C 50.6598557692308 7.421875  52.1538461538462 10.9753787878788  52.1538461538462 15.1136363636364  L 52.1538461538462 18  L 97.7884615384615 18  C 101.953525641026 17.2727272727273  105.530048076923 18.7571022727273  108.518028846154 21.7258522727273  Z " fill-rule="nonzero" fill="#000000" stroke="none" transform="matrix(1 0 0 1 705 330 )" />
  </g>
</svg>