<?xml version="1.0" encoding="utf-8"?>
<svg version="1.1" xmlns:xlink="http://www.w3.org/1999/xlink" width="61px" height="40px" xmlns="http://www.w3.org/2000/svg">
  <g transform="matrix(1 0 0 1 -29 -382 )">
    <path d="M 47.7833333333333 32  L 13.2166666666667 32  C 11.81875 32  10.6220486111111 31.5104166666667  9.6265625 30.53125  C 8.63107638888889 29.5520833333333  8.13333333333333 28.375  9 27  L 9 5  C 8.13333333333333 3.625  8.63107638888889 2.44791666666667  9.6265625 1.46875  C 10.6220486111111 0.489583333333328  11.81875 0  13.2166666666667 0  L 47.7833333333333 0  C 49.18125 0  50.3779513888889 0.489583333333328  51.3734375 1.46875  C 52.3689236111111 2.44791666666667  52.8666666666667 3.625  52 5  L 52 27  C 52.8666666666667 28.375  52.3689236111111 29.5520833333333  51.3734375 30.53125  C 50.3779513888889 31.5104166666667  49.18125 32  47.7833333333333 32  Z M 12.5018229166667 4.296875  C 12.3006076388889 4.49479166666666  12.2 4.72916666666666  13 5  L 13 27  C 12.2 27.2708333333333  12.3006076388889 27.5052083333333  12.5018229166667 27.703125  C 12.7030381944444 27.9010416666667  12.9413194444444 28  13.2166666666667 28  L 47.7833333333333 28  C 48.0586805555556 28  48.2969618055556 27.9010416666667  48.4981770833333 27.703125  C 48.6993923611111 27.5052083333333  48.8 27.2708333333333  48 27  L 48 5  C 48.8 4.72916666666666  48.6993923611111 4.49479166666666  48.4981770833333 4.296875  C 48.2969618055556 4.09895833333333  48.0586805555556 4  47.7833333333333 4  L 13.2166666666667 4  C 12.9413194444444 4  12.7030381944444 4.09895833333333  12.5018229166667 4.296875  Z M 5.08333333333333 34  L 55.9166666666667 34  L 61 34  L 61 37  C 61 37.8333333333333  60.5022569444444 38.5416666666667  59.5067708333333 39.125  C 58.5112847222222 39.7083333333333  57.3145833333333 40  55.9166666666667 40  L 5.08333333333333 40  C 3.68541666666667 40  2.48871527777778 39.7083333333333  1.49322916666667 39.125  C 0.497743055555556 38.5416666666667  0 37.8333333333333  0 37  L 0 34  L 5.08333333333333 34  Z M 27.9583333333333 37  L 33.0416666666667 37  C 33.3805555555556 37  33.55 36.8333333333333  33.55 36.5  C 33.55 36.1666666666667  33.3805555555556 36  33.0416666666667 36  L 27.9583333333333 36  C 27.6194444444444 36  27.45 36.1666666666667  27.45 36.5  C 27.45 36.8333333333333  27.6194444444444 37  27.9583333333333 37  Z " fill-rule="nonzero" fill="#000000" stroke="none" transform="matrix(1 0 0 1 29 382 )" />
  </g>
</svg>