<?xml version="1.0" encoding="utf-8"?>
<svg version="1.1" xmlns:xlink="http://www.w3.org/1999/xlink" width="26px" height="28px" xmlns="http://www.w3.org/2000/svg">
  <g transform="matrix(1 0 0 1 -115 -408 )">
    <path d="M 25.3464673913043 12.382541720154  C 25.7821557971014 12.8018827556697  26 13.3410355156183  26 14  C 26 14.6469833119384  25.7821557971014 15.1921266581087  25.3464673913043 15.6354300385109  L 13.8478260869565 27.3350449293967  C 13.3885869565217 27.7783483097989  12.8528079710145 28  12.2404891304348 28  C 11.6399456521739 28  11.1100543478261 27.7783483097989  10.6508152173913 27.3350449293967  L 9.32608695652174 25.987163029525  C 8.8786231884058 25.5318784766795  8.65489130434783 24.9867351305092  8.65489130434783 24.3517329910141  C 8.65489130434783 23.716730851519  8.8786231884058 23.1715875053487  9.32608695652174 22.7163029525032  L 14.5013586956522 17  L 2.06657608695652 17  C 1.45425724637681 17.4505776636714  0.956748188405797 17.2259306803594  0.574048913043478 16.7766367137356  C 0.191349637681159 16.3273427471117  0 15.7851946940522  0 15.1501925545571  L 0 12.8498074454429  C 0 12.2148053059478  0.191349637681159 11.6726572528883  0.574048913043478 11.2233632862644  C 0.956748188405797 10.7740693196406  1.45425724637681 10.5494223363286  2.06657608695652 11  L 14.5013586956522 11  L 9.32608695652174 5.26572528883184  C 8.8786231884058 4.83440308087291  8.65489130434783 4.29525032092426  8.65489130434783 3.64826700898588  C 8.65489130434783 3.0012836970475  8.8786231884058 2.46213093709884  9.32608695652174 2.03080872913992  L 10.6508152173913 0.682926829268293  C 11.0982789855072 0.227642276422762  11.6281702898551 0  12.2404891304348 0  C 12.8645833333333 0  13.4003623188406 0.227642276422762  13.8478260869565 0.682926829268293  L 25.3464673913043 12.382541720154  Z " fill-rule="nonzero" fill="#000000" stroke="none" transform="matrix(1 0 0 1 115 408 )" />
  </g>
</svg>