<?xml version="1.0" encoding="utf-8"?>
<svg version="1.1" xmlns:xlink="http://www.w3.org/1999/xlink" width="295px" height="70px" xmlns="http://www.w3.org/2000/svg">
  <g transform="matrix(1 0 0 1 -838 -437 )">
    <path d="M 839 441  A 3 3 0 0 1 842 438 L 1129 438  A 3 3 0 0 1 1132 441 L 1132 503  A 3 3 0 0 1 1129 506 L 842 506  A 3 3 0 0 1 839 503 L 839 441  Z " fill-rule="nonzero" fill="#ffffff" stroke="none" />
    <path d="M 838.5 441  A 3.5 3.5 0 0 1 842 437.5 L 1129 437.5  A 3.5 3.5 0 0 1 1132.5 441 L 1132.5 503  A 3.5 3.5 0 0 1 1129 506.5 L 842 506.5  A 3.5 3.5 0 0 1 838.5 503 L 838.5 441  Z " stroke-width="1" stroke="#777777" fill="none" stroke-opacity="0.0980392156862745" />
  </g>
</svg>