<?xml version="1.0" encoding="utf-8"?>
<svg version="1.1" xmlns:xlink="http://www.w3.org/1999/xlink" width="92px" height="70px" xmlns="http://www.w3.org/2000/svg">
  <g transform="matrix(1 0 0 1 -1133 -437 )">
    <path d="M 1134 441  A 3 3 0 0 1 1137 438 L 1221 438  A 3 3 0 0 1 1224 441 L 1224 503  A 3 3 0 0 1 1221 506 L 1137 506  A 3 3 0 0 1 1134 503 L 1134 441  Z " fill-rule="nonzero" fill="#ffffff" stroke="none" />
    <path d="M 1133.5 441  A 3.5 3.5 0 0 1 1137 437.5 L 1221 437.5  A 3.5 3.5 0 0 1 1224.5 441 L 1224.5 503  A 3.5 3.5 0 0 1 1221 506.5 L 1137 506.5  A 3.5 3.5 0 0 1 1133.5 503 L 1133.5 441  Z " stroke-width="1" stroke="#777777" fill="none" stroke-opacity="0.0980392156862745" />
  </g>
</svg>