<?xml version="1.0" encoding="utf-8"?>
<svg version="1.1" xmlns:xlink="http://www.w3.org/1999/xlink" width="166px" height="70px" xmlns="http://www.w3.org/2000/svg">
  <g transform="matrix(1 0 0 1 -553 -411 )">
    <path d="M 554 415  A 3 3 0 0 1 557 412 L 715 412  A 3 3 0 0 1 718 415 L 718 477  A 3 3 0 0 1 715 480 L 557 480  A 3 3 0 0 1 554 477 L 554 415  Z " fill-rule="nonzero" fill="#ffffff" stroke="none" />
    <path d="M 553.5 415  A 3.5 3.5 0 0 1 557 411.5 L 715 411.5  A 3.5 3.5 0 0 1 718.5 415 L 718.5 477  A 3.5 3.5 0 0 1 715 480.5 L 557 480.5  A 3.5 3.5 0 0 1 553.5 477 L 553.5 415  Z " stroke-width="1" stroke="#777777" fill="none" stroke-opacity="0.0980392156862745" />
  </g>
</svg>