<?xml version="1.0" encoding="utf-8"?>
<svg version="1.1" xmlns:xlink="http://www.w3.org/1999/xlink" width="465px" height="70px" xmlns="http://www.w3.org/2000/svg">
  <g transform="matrix(1 0 0 1 -1067 -411 )">
    <path d="M 1068 415  A 3 3 0 0 1 1071 412 L 1528 412  A 3 3 0 0 1 1531 415 L 1531 477  A 3 3 0 0 1 1528 480 L 1071 480  A 3 3 0 0 1 1068 477 L 1068 415  Z " fill-rule="nonzero" fill="#ffffff" stroke="none" />
    <path d="M 1067.5 415  A 3.5 3.5 0 0 1 1071 411.5 L 1528 411.5  A 3.5 3.5 0 0 1 1531.5 415 L 1531.5 477  A 3.5 3.5 0 0 1 1528 480.5 L 1071 480.5  A 3.5 3.5 0 0 1 1067.5 477 L 1067.5 415  Z " stroke-width="1" stroke="#777777" fill="none" stroke-opacity="0.0980392156862745" />
  </g>
</svg>