<?xml version="1.0" encoding="utf-8"?>
<svg version="1.1" xmlns:xlink="http://www.w3.org/1999/xlink" width="21px" height="17px" xmlns="http://www.w3.org/2000/svg">
  <g transform="matrix(1 0 0 1 -353 -2004 )">
    <path d="M 19.03125 15.1164772727273  C 19.2668269230769 14.8910984848485  19.3846153846154 14.6174242424242  19.3846153846154 14.2954545454545  L 19.3846153846154 5.79545454545455  C 19.3846153846154 5.47348484848485  19.2668269230769 5.1998106060606  19.03125 4.97443181818182  C 18.7956730769231 4.74905303030303  18.5096153846154 4.63636363636364  18.1730769230769 4.63636363636364  L 9.28846153846154 4.63636363636364  C 8.95192307692308 4.63636363636364  8.66586538461539 4.52367424242424  8.43028846153846 4.29829545454545  C 8.19471153846154 4.07291666666667  8.07692307692308 3.79924242424242  8.07692307692308 3.47727272727273  L 8.07692307692308 2.70454545454545  C 8.07692307692308 2.38257575757576  7.95913461538462 2.10890151515151  7.72355769230769 1.88352272727273  C 7.48798076923077 1.65814393939394  7.20192307692308 1.54545454545455  6.86538461538462 1.54545454545455  L 2.82692307692308 1.54545454545455  C 2.49038461538462 1.54545454545455  2.20432692307692 1.65814393939394  1.96875 1.88352272727273  C 1.73317307692308 2.10890151515151  1.61538461538462 2.38257575757576  2 2.70454545454545  L 2 14.2954545454545  C 1.61538461538462 14.6174242424242  1.73317307692308 14.8910984848485  1.96875 15.1164772727273  C 2.20432692307692 15.3418560606061  2.49038461538462 15.4545454545455  2.82692307692308 15.4545454545455  L 18.1730769230769 15.4545454545455  C 18.5096153846154 15.4545454545455  18.7956730769231 15.3418560606061  19.03125 15.1164772727273  Z M 20.1670673076923 3.88778409090909  C 20.7223557692308 4.41903409090909  21 5.05492424242424  21 5.79545454545455  L 21 14.2954545454545  C 21 15.0359848484848  20.7223557692308 15.671875  20.1670673076923 16.203125  C 19.6117788461538 16.734375  18.9471153846154 17  18.1730769230769 17  L 2.82692307692308 17  C 2.05288461538462 17  1.38822115384615 16.734375  0.832932692307692 16.203125  C 0.277644230769231 15.671875  0 15.0359848484848  0 14.2954545454545  L 0 2.70454545454545  C 0 1.96401515151515  0.277644230769231 1.328125  0.832932692307692 0.796875  C 1.38822115384615 0.265625  2.05288461538462 0  2.82692307692308 0  L 6.86538461538462 0  C 7.63942307692308 0  8.30408653846154 0.265625  8.859375 0.796875  C 9.41466346153846 1.328125  9.69230769230769 1.96401515151515  9.69230769230769 2.70454545454545  L 9.69230769230769 3.09090909090909  L 18.1730769230769 3.09090909090909  C 18.9471153846154 3.09090909090909  19.6117788461538 3.35653409090909  20.1670673076923 3.88778409090909  Z " fill-rule="nonzero" fill="#000000" stroke="none" transform="matrix(1 0 0 1 353 2004 )" />
  </g>
</svg>