<?xml version="1.0" encoding="utf-8"?>
<svg version="1.1" xmlns:xlink="http://www.w3.org/1999/xlink" width="95px" height="79px" xmlns="http://www.w3.org/2000/svg">
  <g transform="matrix(1 0 0 1 -114 -1640 )">
    <path d="M 86.09375 70.2471590909091  C 87.1594551282051 69.1998106060606  87.6923076923077 67.9280303030303  87 66.4318181818182  L 87 26.9318181818182  C 87.6923076923077 25.4356060606061  87.1594551282051 24.1638257575758  86.09375 23.1164772727273  C 85.0280448717949 22.0691287878788  83.7339743589744 21.5454545454545  82.2115384615385 22  L 42.0192307692308 22  C 40.4967948717949 21.5454545454545  39.2027243589744 21.0217803030303  38.1370192307692 19.9744318181818  C 37.0713141025641 18.9270833333333  36.5384615384615 17.655303030303  36.5384615384615 16.1590909090909  L 36.5384615384615 12.5681818181818  C 36.5384615384615 11.0719696969697  36.005608974359 9.80018939393938  34.9399038461538 8.75284090909091  C 33.8741987179487 7.70549242424242  32.5801282051282 7.18181818181818  31.0576923076923 8  L 12.7884615384615 8  C 11.2660256410256 7.18181818181818  9.97195512820513 7.70549242424242  8.90625 8.75284090909091  C 7.84054487179487 9.80018939393938  7.30769230769231 11.0719696969697  8 12.5681818181818  L 8 66.4318181818182  C 7.30769230769231 67.9280303030303  7.84054487179487 69.1998106060606  8.90625 70.2471590909091  C 9.97195512820513 71.2945075757576  11.2660256410256 71.8181818181818  12.7884615384615 71  L 82.2115384615385 71  C 83.7339743589744 71.8181818181818  85.0280448717949 71.2945075757576  86.09375 70.2471590909091  Z M 91.2319711538461 18.0667613636364  C 93.7439903846154 20.5355113636364  95 23.4905303030303  95 26.9318181818182  L 95 66.4318181818182  C 95 69.8731060606061  93.7439903846154 72.828125  91.2319711538461 75.296875  C 88.7199519230769 77.765625  85.713141025641 79  82.2115384615385 79  L 12.7884615384615 79  C 9.28685897435898 79  6.28004807692308 77.765625  3.76802884615385 75.296875  C 1.25600961538462 72.828125  0 69.8731060606061  0 66.4318181818182  L 0 12.5681818181818  C 0 9.12689393939393  1.25600961538462 6.171875  3.76802884615385 3.703125  C 6.28004807692308 1.234375  9.28685897435898 0  12.7884615384615 0  L 31.0576923076923 0  C 34.5592948717949 0  37.5661057692308 1.234375  40.078125 3.703125  C 42.5901442307692 6.171875  43.8461538461538 9.12689393939393  43.8461538461538 12.5681818181818  L 43.8461538461538 15  L 82.2115384615385 15  C 85.713141025641 14.3636363636364  88.7199519230769 15.5980113636364  91.2319711538461 18.0667613636364  Z " fill-rule="nonzero" fill="#000000" stroke="none" transform="matrix(1 0 0 1 114 1640 )" />
  </g>
</svg>