<?xml version="1.0" encoding="utf-8"?>
<svg version="1.1" xmlns:xlink="http://www.w3.org/1999/xlink" width="50px" height="42px" xmlns="http://www.w3.org/2000/svg">
  <g transform="matrix(1 0 0 1 -901 -2764 )">
    <path d="M 48.0168269230769 9.60511363636363  C 49.3389423076923 10.9176136363636  50 12.4886363636364  50 14.3181818181818  L 50 35.3181818181818  C 50 37.1477272727273  49.3389423076923 38.71875  48.0168269230769 40.03125  C 46.6947115384615 41.34375  45.1121794871795 42  43.2692307692308 42  L 6.73076923076923 42  C 4.88782051282051 42  3.30528846153846 41.34375  1.98317307692308 40.03125  C 0.661057692307692 38.71875  0 37.1477272727273  0 35.3181818181818  L 0 6.68181818181818  C 0 4.85227272727272  0.661057692307692 3.28125  1.98317307692308 1.96875  C 3.30528846153846 0.65625  4.88782051282051 0  6.73076923076923 0  L 16.3461538461538 0  C 18.1891025641026 0  19.7716346153846 0.65625  21.09375 1.96875  C 22.4158653846154 3.28125  23.0769230769231 4.85227272727272  23.0769230769231 6.68181818181818  L 23.0769230769231 8  L 43.2692307692308 8  C 45.1121794871795 7.63636363636363  46.6947115384615 8.29261363636363  48.0168269230769 9.60511363636363  Z " fill-rule="nonzero" fill="#000000" stroke="none" transform="matrix(1 0 0 1 901 2764 )" />
  </g>
</svg>