<?xml version="1.0" encoding="utf-8"?>
<svg version="1.1" xmlns:xlink="http://www.w3.org/1999/xlink" width="37px" height="37px" xmlns="http://www.w3.org/2000/svg">
  <g transform="matrix(1 0 0 1 -498 -775 )">
    <path d="M 0 37  L 0 0  L 37 0  L 37 37  L 0 37  Z M 24.1608072916667 7.70833333333333  L 21.8723958333333 7.70833333333333  L 21.5833333333333 8.50325520833333  L 23.3899739583333 10.5026041666667  L 22.6432291666667 13.2486979166667  L 23.2454427083333 13.8509114583333  L 25.8229166666667 12.4778645833333  L 28.400390625 13.8509114583333  L 29.0026041666667 13.2486979166667  L 28.255859375 10.5026041666667  L 30.0625 8.50325520833333  L 29.7734375 7.70833333333333  L 27.4850260416667 7.70833333333333  L 26.2083333333333 5.39583333333333  L 25.4375 5.39583333333333  L 24.1608072916667 7.70833333333333  Z M 14.5615234375 11.7672526041667  C 14.7783203125 11.6789279513889  15.0713975694444 11.634765625  15.4407552083333 11.634765625  C 15.9546440972222 11.634765625  16.3119574652778 11.7632378472222  16.5126953125 12.0201822916667  C 16.7134331597222 12.2771267361111  16.8057725694444 12.7829861111111  16.7897135416667 13.5377604166667  L 20.9811197916667 13.0319010416667  C 20.9811197916667 12.1486545138889  20.8406032986111 11.4059244791667  20.5595703125 10.8037109375  C 20.2785373263889 10.2014973958333  19.873046875 9.75184461805555  19.3430989583333 9.45475260416667  C 18.8131510416667 9.15766059027778  18.2591145833333 8.95290798611111  17.6809895833333 8.84049479166667  C 17.1028645833333 8.72808159722222  16.4203559027778 8.671875  15.6334635416667 8.671875  C 13.4976128472222 8.671875  11.8997395833333 9.13357204861111  10.83984375 10.0569661458333  C 9.77994791666667 10.9803602430556  9.25 12.4457465277778  9.25 14.453125  L 9.25 16.1875  L 6.9375 16.1875  L 6.9375 19.2708333333333  L 8.76822916666667 19.2708333333333  C 9.08940972222222 19.2708333333333  9.25 19.3350694444444  9.25 19.4635416666667  L 9.25 28.6653645833333  C 9.25 28.8901909722222  9.20985243055556 29.05078125  9.12955729166667 29.1471354166667  C 9.04926215277778 29.2434895833333  8.90473090277778 29.2996961805556  8.69596354166667 29.3157552083333  L 6.9375 29.484375  L 6.9375 31  L 17.7291666666667 31  L 17.7291666666667 29.5325520833333  L 14.1399739583333 29.1953125  C 14.0436197916667 29.1792534722222  13.9753689236111 29.1672092013889  13.9352213541667 29.1591796875  C 13.8950737847222 29.1511501736111  13.8669704861111 29.1310763888889  13.8509114583333 29.0989583333333  C 13.8348524305556 29.0668402777778  13.8308376736111 29.0347222222222  13.8388671875 29.0026041666667  C 13.8468967013889 28.9704861111111  13.8549262152778 28.9142795138889  13.8629557291667 28.833984375  C 13.8709852430556 28.7536892361111  13.875 28.6733940972222  13.875 28.5930989583333  L 13.875 19.2708333333333  L 18.4759114583333 19.2708333333333  L 19.3912760416667 16.1875  L 13.8268229166667 16.1875  C 13.73046875 16.1875  13.7144097222222 16.1393229166667  13.7786458333333 16.04296875  C 13.8428819444444 15.9466145833333  13.875 15.8743489583333  13.875 15.826171875  L 13.875 13.8990885416667  C 13.875 13.4654947916667  13.8870442708333 13.1402994791667  13.9111328125 12.9235026041667  C 13.9352213541667 12.7067057291667  13.9954427083333 12.4818793402778  14.091796875 12.2490234375  C 14.1881510416667 12.0161675347222  14.3447265625 11.8555772569444  14.5615234375 11.7672526041667  Z M 21.5833333333333 31.6041666666667  L 30.0625 31.6041666666667  L 30.0625 29.5325520833333  L 28.76171875 29.3157552083333  C 28.6493055555556 29.2996961805556  28.5730251736111 29.2796223958333  28.5328776041667 29.2555338541667  C 28.4927300347222 29.2314453125  28.47265625 29.2073567708333  28.47265625 29.1832682291667  C 28.47265625 29.1591796875  28.4806857638889 29.0989583333333  28.4967447916667 29.0026041666667  C 28.5128038194444 28.90625  28.5208333333333 28.8098958333333  28 28.7135416666667  L 28 16.1875  L 21.896484375 16.1875  L 21.3424479166667 18.6204427083333  L 23.341796875 19.150390625  C 23.7111545138889 19.2628038194444  23.8958333333333 19.4796006944444  23.8958333333333 19.80078125  L 23.8958333333333 28.7135416666667  C 23.8958333333333 28.9383680555556  23.84765625 29.0869140625  23.7513020833333 29.1591796875  C 23.6549479166667 29.2314453125  23.4943576388889 29.2836371527778  23.26953125 29.3157552083333  L 21.5833333333333 29.5325520833333  L 21.5833333333333 31.6041666666667  Z " fill-rule="nonzero" fill="#000000" stroke="none" transform="matrix(1 0 0 1 498 775 )" />
  </g>
</svg>