<?xml version="1.0" encoding="utf-8"?>
<svg version="1.1" xmlns:xlink="http://www.w3.org/1999/xlink" width="50px" height="50px" xmlns="http://www.w3.org/2000/svg">
  <g transform="matrix(1 0 0 1 -198 -231 )">
    <path d="M 223 231  C 237 231  248 242  248 256  C 248 270  237 281  223 281  C 209 281  198 270  198 256  C 198 242  209 231  223 231  Z " fill-rule="nonzero" fill="#ffffff" stroke="none" />
    <path d="M 223 231.5  C 236.72 231.5  247.5 242.28  247.5 256  C 247.5 269.72  236.72 280.5  223 280.5  C 209.28 280.5  198.5 269.72  198.5 256  C 198.5 242.28  209.28 231.5  223 231.5  Z " stroke-width="1" stroke="#797979" fill="none" />
  </g>
</svg>