<?xml version="1.0" encoding="utf-8"?>
<svg version="1.1" xmlns:xlink="http://www.w3.org/1999/xlink" width="37px" height="37px" xmlns="http://www.w3.org/2000/svg">
  <g transform="matrix(1 0 0 1 -1317 -240 )">
    <path d="M 22.69140625 22.69140625  C 24.6407251602564 20.7420873397436  25.6153846153846 18.396233974359  25.6153846153846 15.6538461538462  C 25.6153846153846 12.9114583333333  24.6407251602564 10.5656049679487  22.69140625 8.61628605769231  C 20.7420873397436 6.6669671474359  18.396233974359 5.69230769230769  15.6538461538462 5.69230769230769  C 12.9114583333333 5.69230769230769  10.5656049679487 6.6669671474359  8.61628605769231 8.61628605769231  C 6.6669671474359 10.5656049679487  5.69230769230769 12.9114583333333  5.69230769230769 15.6538461538462  C 5.69230769230769 18.396233974359  6.6669671474359 20.7420873397436  8.61628605769231 22.69140625  C 10.5656049679487 24.6407251602564  12.9114583333333 25.6153846153846  15.6538461538462 25.6153846153846  C 18.396233974359 25.6153846153846  20.7420873397436 24.6407251602564  22.69140625 22.69140625  Z M 36.1772836538462 32.1526442307692  C 36.7257612179487 32.7011217948718  37 33.3681891025641  37 34.1538461538462  C 37 34.9246794871795  36.7183493589744 35.5917467948718  36.1550480769231 36.1550480769231  C 35.5917467948718 36.7183493589744  34.9246794871795 37  34.1538461538462 37  C 33.3533653846154 37  32.6862980769231 36.7183493589744  32.1526442307692 36.1550480769231  L 24.5258413461538 28.5504807692308  C 21.8723958333333 30.3886217948718  18.9150641025641 31.3076923076923  15.6538461538462 31.3076923076923  C 13.5340544871795 31.3076923076923  11.5069110576923 30.8963341346154  9.57241586538461 30.0736177884615  C 7.63792067307692 29.2509014423077  5.97025240384615 28.1391225961538  4.56941105769231 26.73828125  C 3.16856971153846 25.3374399038462  2.05679086538462 23.6697716346154  1.23407451923077 21.7352764423077  C 0.411358173076923 19.80078125  0 17.7736378205128  0 15.6538461538462  C 0 13.5340544871795  0.411358173076923 11.5069110576923  1.23407451923077 9.57241586538461  C 2.05679086538462 7.63792067307692  3.16856971153846 5.97025240384616  4.56941105769231 4.56941105769231  C 5.97025240384615 3.16856971153846  7.63792067307692 2.05679086538461  9.57241586538461 1.23407451923077  C 11.5069110576923 0.411358173076922  13.5340544871795 0  15.6538461538462 0  C 17.7736378205128 0  19.80078125 0.411358173076922  21.7352764423077 1.23407451923077  C 23.6697716346154 2.05679086538461  25.3374399038462 3.16856971153846  26.73828125 4.56941105769231  C 28.1391225961538 5.97025240384616  29.2509014423077 7.63792067307692  30.0736177884615 9.57241586538461  C 30.8963341346154 11.5069110576923  31.3076923076923 13.5340544871795  31.3076923076923 15.6538461538462  C 31.3076923076923 18.9150641025641  30.3886217948718 21.8723958333333  28.5504807692308 24.5258413461538  L 36.1772836538462 32.1526442307692  Z " fill-rule="nonzero" fill="#000000" stroke="none" transform="matrix(1 0 0 1 1317 240 )" />
  </g>
</svg>