<?xml version="1.0" encoding="utf-8"?>
<svg version="1.1" xmlns:xlink="http://www.w3.org/1999/xlink" width="10px" height="7px" xmlns="http://www.w3.org/2000/svg">
  <g transform="matrix(1 0 0 1 -209 -480 )">
    <path d="M 0.714285714285714 3.5  C 1.33556547619048 4.39583333333333  2.12983630952381 5.046875  3.09709821428571 5.453125  L 3.53236607142857 4.71875  C 3.20870535714286 4.5  2.95572916666667 4.22395833333333  2.7734375 3.890625  C 2.59114583333333 3.55729166666667  2.5 3.20486111111111  2.5 2.83333333333333  C 2.5 2.41319444444444  2.61346726190476 2.02256944444444  2.84040178571429 1.66145833333333  C 1.98846726190476 2.06770833333333  1.2797619047619 2.68055555555556  0.714285714285714 3.5  Z M 5.18973214285714 1.67708333333333  C 5.24181547619048 1.62847222222222  5.26785714285714 1.56944444444444  5.26785714285714 1.5  C 5.26785714285714 1.43055555555556  5.24181547619048 1.37152777777778  5.18973214285714 1.32291666666667  C 5.13764880952381 1.27430555555555  5.07440476190476 1.25  5 1.25  C 4.53497023809524 1.25  4.13597470238095 1.40538194444444  3.80301339285714 1.71614583333333  C 3.47005208333333 2.02690972222222  3.30357142857143 2.39930555555556  3.30357142857143 2.83333333333333  C 3.30357142857143 2.90277777777778  3.3296130952381 2.96180555555556  3.38169642857143 3.01041666666667  C 3.43377976190476 3.05902777777778  3.49702380952381 3.08333333333333  3.57142857142857 3.08333333333333  C 3.64583333333333 3.08333333333333  3.70907738095238 3.05902777777778  3.76116071428571 3.01041666666667  C 3.81324404761905 2.96180555555556  3.83928571428571 2.90277777777778  3.83928571428571 2.83333333333333  C 3.83928571428571 2.53472222222222  3.95275297619048 2.27951388888889  4.1796875 2.06770833333333  C 4.40662202380952 1.85590277777778  4.68005952380952 1.75  5 1.75  C 5.07440476190476 1.75  5.13764880952381 1.72569444444444  5.18973214285714 1.67708333333333  Z M 7.20424107142857 0.364583333333334  C 7.26376488095238 0.399305555555555  7.29352678571429 0.446180555555555  7.29352678571429 0.505208333333333  C 7.29352678571429 0.529513888888888  7.29166666666667 0.545138888888888  7.28794642857143 0.552083333333334  C 6.89360119047619 1.20833333333333  6.30580357142857 2.19270833333333  5.52455357142857 3.50520833333333  C 4.74330357142857 4.81770833333333  4.15736607142857 5.80034722222222  3.76674107142857 6.453125  L 3.49330357142857 6.91666666666667  C 3.45610119047619 6.97222222222222  3.40401785714286 7  3.33705357142857 7  C 3.29241071428571 7  3.04315476190476 6.87847222222222  2.58928571428571 6.63541666666667  C 2.52976190476191 6.60069444444444  2.5 6.55208333333333  2.5 6.48958333333333  C 2.5 6.44791666666667  2.58184523809524 6.296875  2.74553571428571 6.03645833333333  C 2.21354166666667 5.81076388888889  1.72340029761905 5.51041666666667  1.27511160714286 5.13541666666667  C 0.826822916666667 4.76041666666667  0.438988095238095 4.33506944444444  0.111607142857143 3.859375  C 0.037202380952381 3.75173611111111  0 3.63194444444444  0 3.5  C 0 3.36805555555556  0.037202380952381 3.24826388888889  0.111607142857143 3.140625  C 0.680803571428572 2.32465277777778  1.38764880952381 1.68055555555555  2.23214285714286 1.20833333333333  C 3.07663690476191 0.736111111111111  3.99925595238095 0.5  5 0.5  C 5.33110119047619 0.5  5.66592261904762 0.529513888888888  6.00446428571429 0.588541666666667  L 6.30580357142857 0.083333333333333  C 6.34300595238095 0.0277777777777777  6.39508928571429 0  6.46205357142857 0  C 6.48065476190476 0  6.51413690476191 0.0104166666666666  6.5625 0.0312499999999999  C 6.61086309523809 0.0520833333333331  6.66852678571429 0.0789930555555547  6.73549107142857 0.111979166666667  C 6.80245535714286 0.144965277777777  6.86383928571429 0.177083333333333  6.91964285714286 0.208333333333333  C 6.97544642857143 0.239583333333333  7.03404017857143 0.271701388888888  7.09542410714286 0.3046875  C 7.15680803571429 0.33767361111111  7.19308035714286 0.357638888888888  7.20424107142857 0.364583333333334  Z M 7.45535714285714 2.39583333333333  C 7.48511904761905 2.55208333333333  7.5 2.69791666666667  7.5 2.83333333333333  C 7.5 3.31597222222222  7.35305059523809 3.75607638888889  7.05915178571429 4.15364583333333  C 6.76525297619048 4.55121527777778  6.37648809523809 4.83680555555555  5.89285714285714 5.01041666666667  L 7.45535714285714 2.39583333333333  Z M 9.88839285714286 3.140625  C 9.96279761904762 3.25868055555556  10 3.37847222222222  10 3.5  C 10 3.62152777777778  9.96279761904762 3.74131944444444  9.88839285714286 3.859375  C 9.74330357142857 4.08159722222222  9.54055059523809 4.33333333333333  9.28013392857143 4.61458333333333  C 8.72209821428571 5.21180555555556  8.07570684523809 5.67534722222222  7.34095982142857 6.00520833333333  C 6.60621279761905 6.33506944444444  5.82589285714286 6.5  5 6.5  L 5.41294642857143 5.8125  C 6.20163690476191 5.75  6.93173363095238 5.51215277777778  7.60323660714286 5.09895833333333  C 8.27473958333333 4.68576388888889  8.83556547619048 4.15277777777778  9.28571428571429 3.5  C 8.85788690476191 2.87847222222222  8.33333333333333 2.36805555555556  7.71205357142857 1.96875  L 8.06361607142857 1.38541666666667  C 8.41703869047619 1.60763888888889  8.75651041666667 1.87326388888889  9.08203125 2.18229166666667  C 9.40755208333333 2.49131944444444  9.67633928571429 2.81076388888889  9.88839285714286 3.140625  Z " fill-rule="nonzero" fill="#757575" stroke="none" transform="matrix(1 0 0 1 209 480 )" />
  </g>
</svg>