<?xml version="1.0" encoding="utf-8"?>
<svg version="1.1" xmlns:xlink="http://www.w3.org/1999/xlink" width="45px" height="51px" xmlns="http://www.w3.org/2000/svg">
  <g transform="matrix(1 0 0 1 -1870 -3184 )">
    <path d="M 0 28.3699870633894  L 9.140625 19.4301423027167  L 22.5 29.4915912031048  L 13.2512019230769 38.8932729624838  L 0 28.3699870633894  Z M 31.8299278846154 40.9055627425615  L 35.8052884615385 37.738680465718  L 35.8052884615385 41.3014230271669  L 22.5540865384615 50.9670116429495  L 22.5540865384615 51  L 22.5270432692308 50.9670116429495  L 22.5 51  L 22.5 50.9670116429495  L 9.27584134615384 41.3014230271669  L 9.27584134615384 37.738680465718  L 13.2512019230769 40.9055627425615  L 22.5 31.5368693402329  L 22.5 31.470892626132  L 22.5270432692308 31.5038809831824  L 22.5540865384615 31.470892626132  L 22.5540865384615 31.5368693402329  L 31.8299278846154 40.9055627425615  Z M 0 10.5232858990944  L 13.2512019230769 0  L 22.5 9.40168175937904  L 9.140625 19.4301423027167  L 0 10.5232858990944  Z M 22.5 29.4915912031048  L 35.859375 19.4301423027167  L 45 28.3699870633894  L 31.7758413461538 38.8932729624838  L 22.5 29.4915912031048  Z M 22.5 9.40168175937904  L 31.7758413461538 0  L 45 10.5232858990944  L 35.859375 19.4301423027167  L 22.5 9.40168175937904  Z " fill-rule="nonzero" fill="#000000" stroke="none" transform="matrix(1 0 0 1 1870 3184 )" />
  </g>
</svg>