<?xml version="1.0" encoding="utf-8"?>
<svg version="1.1" xmlns:xlink="http://www.w3.org/1999/xlink" width="75px" height="52px" xmlns="http://www.w3.org/2000/svg">
  <g transform="matrix(1 0 0 1 -2183 -2444 )">
    <path d="M 58.75 41  L 16.25 41  C 14.53125 41.6  13.0598958333333 40.9635416666667  11.8359375 39.690625  C 10.6119791666667 38.4177083333333  10 36.8875  10 35.1  L 10 6.5  C 10 4.7125  10.6119791666667 3.18229166666666  11.8359375 1.909375  C 13.0598958333333 0.636458333333326  14.53125 0  16.25 0  L 58.75 0  C 60.46875 0  61.9401041666667 0.636458333333326  63.1640625 1.909375  C 64.3880208333333 3.18229166666666  65 4.7125  65 6.5  L 65 35.1  C 65 36.8875  64.3880208333333 38.4177083333333  63.1640625 39.690625  C 61.9401041666667 40.9635416666667  60.46875 41.6  58.75 41  Z M 15.37109375 5.5859375  C 15.1236979166667 5.84322916666666  15 6.14791666666666  15 6.5  L 15 35.1  C 15 35.4520833333333  15.1236979166667 35.7567708333333  15.37109375 36.0140625  C 15.6184895833333 36.2713541666667  15.9114583333333 36.4  16.25 36  L 58.75 36  C 59.0885416666667 36.4  59.3815104166667 36.2713541666667  59.62890625 36.0140625  C 59.8763020833333 35.7567708333333  60 35.4520833333333  60 35.1  L 60 6.5  C 60 6.14791666666666  59.8763020833333 5.84322916666666  59.62890625 5.5859375  C 59.3815104166667 5.32864583333332  59.0885416666667 5.2  58.75 6  L 16.25 6  C 15.9114583333333 5.2  15.6184895833333 5.32864583333332  15.37109375 5.5859375  Z M 6.25 44  L 68.75 44  L 75 44.2  L 75 48.1  C 75 49.1833333333333  74.3880208333333 50.1041666666667  73.1640625 50.8625  C 71.9401041666667 51.6208333333333  70.46875 52  68.75 52  L 6.25 52  C 4.53125 52  3.05989583333333 51.6208333333333  1.8359375 50.8625  C 0.611979166666667 50.1041666666667  0 49.1833333333333  0 48.1  L 0 44.2  L 6.25 44  Z M 34.375 48.1  L 40.625 48.1  C 41.0416666666667 48.1  41.25 47.8833333333333  41.25 47.45  C 41.25 47.0166666666667  41.0416666666667 46.8  40.625 46.8  L 34.375 46.8  C 33.9583333333333 46.8  33.75 47.0166666666667  33.75 47.45  C 33.75 47.8833333333333  33.9583333333333 48.1  34.375 48.1  Z " fill-rule="nonzero" fill="#000000" stroke="none" transform="matrix(1 0 0 1 2183 2444 )" />
  </g>
</svg>