<?xml version="1.0" encoding="utf-8"?>
<svg version="1.1" xmlns:xlink="http://www.w3.org/1999/xlink" width="41px" height="38px" xmlns="http://www.w3.org/2000/svg">
  <g transform="matrix(1 0 0 1 -1752 -2482 )">
    <path d="M 0 21.1384217335058  L 8.328125 14.477360931436  L 20.5 21.974126778784  L 12.0733173076923 28.9793014230272  L 0 21.1384217335058  Z M 29.0006009615385 30.4786545924968  L 32.6225961538462 28.1190168175938  L 32.6225961538462 30.7736093143596  L 20.5492788461538 37.9754204398448  L 20.5492788461538 38  L 20.5246394230769 37.9754204398448  L 20.5 38  L 20.5 37.9754204398448  L 8.45132211538461 30.7736093143596  L 8.45132211538461 28.1190168175938  L 12.0733173076923 30.4786545924968  L 20.5 23.4980595084088  L 20.5 23.4489003880983  L 20.5246394230769 23.4734799482536  L 20.5492788461538 23.4489003880983  L 20.5492788461538 23.4980595084088  L 29.0006009615385 30.4786545924968  Z M 0 7.84087968952134  L 12.0733173076923 0  L 20.5 7.00517464424321  L 8.328125 14.477360931436  L 0 7.84087968952134  Z M 20.5 21.974126778784  L 32.671875 14.477360931436  L 41 21.1384217335058  L 28.9513221153846 28.9793014230272  L 20.5 21.974126778784  Z M 20.5 7.00517464424321  L 28.9513221153846 0  L 41 7.84087968952134  L 32.671875 14.477360931436  L 20.5 7.00517464424321  Z " fill-rule="nonzero" fill="#000000" stroke="none" transform="matrix(1 0 0 1 1752 2482 )" />
  </g>
</svg>