<?xml version="1.0" encoding="utf-8"?>
<svg version="1.1" xmlns:xlink="http://www.w3.org/1999/xlink" width="26px" height="24px" xmlns="http://www.w3.org/2000/svg">
  <g transform="matrix(1 0 0 1 -2083 -1562 )">
    <path d="M 0 13.3505821474774  L 5.28125 9.14359637774903  L 13 13.8783958602846  L 7.65625 18.3027166882277  L 0 13.3505821474774  Z M 18.390625 19.2496765847348  L 20.6875 17.7593790426908  L 20.6875 19.4359637774903  L 13.03125 23.9844760672704  L 13.03125 24  L 13.015625 23.9844760672704  L 13 24  L 13 23.9844760672704  L 5.359375 19.4359637774903  L 5.359375 17.7593790426908  L 7.65625 19.2496765847348  L 13 14.8408796895213  L 13 14.8098318240621  L 13.015625 14.8253557567917  L 13.03125 14.8098318240621  L 13.03125 14.8408796895213  L 18.390625 19.2496765847348  Z M 0 4.95213454075032  L 7.65625 0  L 13 4.42432082794308  L 5.28125 9.14359637774903  L 0 4.95213454075032  Z M 13 13.8783958602846  L 20.71875 9.14359637774903  L 26 13.3505821474774  L 18.359375 18.3027166882277  L 13 13.8783958602846  Z M 13 4.42432082794308  L 18.359375 0  L 26 4.95213454075032  L 20.71875 9.14359637774903  L 13 4.42432082794308  Z " fill-rule="nonzero" fill="#000000" stroke="none" transform="matrix(1 0 0 1 2083 1562 )" />
  </g>
</svg>