<?xml version="1.0" encoding="utf-8"?>
<svg version="1.1" xmlns:xlink="http://www.w3.org/1999/xlink" width="13px" height="12px" xmlns="http://www.w3.org/2000/svg">
  <g transform="matrix(1 0 0 1 -303 -347 )">
    <path d="M 12.484375 2.74431818181818  C 12.828125 3.11931818181818  13 3.56818181818182  13 4.09090909090909  L 13 10.0909090909091  C 13 10.6136363636364  12.828125 11.0625  12.484375 11.4375  C 12.140625 11.8125  11.7291666666667 12  11.25 12  L 1.75 12  C 1.27083333333333 12  0.859375 11.8125  0.515625 11.4375  C 0.171875 11.0625  0 10.6136363636364  0 10.0909090909091  L 0 1.90909090909091  C 0 1.38636363636363  0.171875 0.9375  0.515625 0.5625  C 0.859375 0.1875  1.27083333333333 0  1.75 0  L 4.25 0  C 4.72916666666667 0  5.140625 0.1875  5.484375 0.5625  C 5.828125 0.9375  6 1.38636363636363  6 1.90909090909091  L 6 2.18181818181818  L 11.25 2.18181818181818  C 11.7291666666667 2.18181818181818  12.140625 2.36931818181818  12.484375 2.74431818181818  Z " fill-rule="nonzero" fill="#000000" stroke="none" transform="matrix(1 0 0 1 303 347 )" />
  </g>
</svg>