<?xml version="1.0" encoding="utf-8"?>
<svg version="1.1" xmlns:xlink="http://www.w3.org/1999/xlink" width="21px" height="17px" xmlns="http://www.w3.org/2000/svg">
  <g transform="matrix(1 0 0 1 -23 -565 )">
    <path d="M 20.1670673076923 3.88778409090909  C 20.7223557692308 4.41903409090909  21 5.05492424242424  21 5.79545454545455  L 21 14.2954545454545  C 21 15.0359848484848  20.7223557692308 15.671875  20.1670673076923 16.203125  C 19.6117788461538 16.734375  18.9471153846154 17  18.1730769230769 17  L 2.82692307692308 17  C 2.05288461538462 17  1.38822115384615 16.734375  0.832932692307692 16.203125  C 0.277644230769231 15.671875  0 15.0359848484848  0 14.2954545454545  L 0 2.70454545454545  C 0 1.96401515151515  0.277644230769231 1.328125  0.832932692307692 0.796875  C 1.38822115384615 0.265625  2.05288461538462 0  2.82692307692308 0  L 6.86538461538462 0  C 7.63942307692308 0  8.30408653846154 0.265625  8.859375 0.796875  C 9.41466346153846 1.328125  9.69230769230769 1.96401515151515  9.69230769230769 2.70454545454545  L 9.69230769230769 3.09090909090909  L 18.1730769230769 3.09090909090909  C 18.9471153846154 3.09090909090909  19.6117788461538 3.35653409090909  20.1670673076923 3.88778409090909  Z " fill-rule="nonzero" fill="#000000" stroke="none" transform="matrix(1 0 0 1 23 565 )" />
  </g>
</svg>