<?xml version="1.0" encoding="utf-8"?>
<svg version="1.1" xmlns:xlink="http://www.w3.org/1999/xlink" width="54px" height="54px" xmlns="http://www.w3.org/2000/svg">
  <g transform="matrix(1 0 0 1 -19 -95 )">
    <path d="M 19 95  L 73 95  L 73 149  L 19 149  L 19 95  " fill-rule="nonzero" fill="#cccccc" stroke="none" />
    <path d="M 23 99  L 69 99  L 69 145  L 23 145  L 23 99  " fill-rule="nonzero" fill="#ffffff" stroke="none" />
    <path d="M 51.13 111.2  C 48.862 111.2  47.08 109.418  47.08 107.15  C 47.08 104.882  48.862 103.1  51.13 103.1  C 53.398 103.1  55.18 104.882  55.18 107.15  C 55.18 109.418  53.398 111.2  51.13 111.2  " fill-rule="nonzero" fill="#cccccc" stroke="none" />
    <path d="M 25 144  L 25 120.35  L 35.75 109.6  L 50.8 118.2  L 59.4 116.05  L 68 118.2  L 68 144  L 25 144  " fill-rule="nonzero" fill="#169bd5" stroke="none" />
  </g>
</svg>