<?xml version="1.0" encoding="utf-8"?>
<svg version="1.1" xmlns:xlink="http://www.w3.org/1999/xlink" width="15px" height="15px" xmlns="http://www.w3.org/2000/svg">
  <g transform="matrix(1 0 0 1 -719 -1061 )">
    <path d="M 726.5 1061  C 730.7 1061  734 1064.3  734 1068.5  C 734 1072.7  730.7 1076  726.5 1076  C 722.3 1076  719 1072.7  719 1068.5  C 719 1064.3  722.3 1061  726.5 1061  Z " fill-rule="nonzero" fill="#ff5050" stroke="none" />
    <path d="M 726.5 1061.5  C 730.42 1061.5  733.5 1064.58  733.5 1068.5  C 733.5 1072.42  730.42 1075.5  726.5 1075.5  C 722.58 1075.5  719.5 1072.42  719.5 1068.5  C 719.5 1064.58  722.58 1061.5  726.5 1061.5  Z " stroke-width="1" stroke="#797979" fill="none" />
  </g>
</svg>