<?xml version="1.0" encoding="utf-8"?>
<svg version="1.1" xmlns:xlink="http://www.w3.org/1999/xlink" width="86px" height="86px" xmlns="http://www.w3.org/2000/svg">
  <g transform="matrix(1 0 0 1 -789 -3288 )">
    <path d="M 832 3288  C 856.08 3288  875 3306.92  875 3331  C 875 3355.08  856.08 3374  832 3374  C 807.92 3374  789 3355.08  789 3331  C 789 3306.92  807.92 3288  832 3288  Z " fill-rule="nonzero" fill="#ffffff" stroke="none" />
    <path d="M 832 3288.5  C 855.8 3288.5  874.5 3307.2  874.5 3331  C 874.5 3354.8  855.8 3373.5  832 3373.5  C 808.2 3373.5  789.5 3354.8  789.5 3331  C 789.5 3307.2  808.2 3288.5  832 3288.5  Z " stroke-width="1" stroke="#797979" fill="none" />
  </g>
</svg>