<?xml version="1.0" encoding="utf-8"?>
<svg version="1.1" xmlns:xlink="http://www.w3.org/1999/xlink" width="86px" height="86px" xmlns="http://www.w3.org/2000/svg">
  <g transform="matrix(1 0 0 1 -798 -1120 )">
    <path d="M 841 1120  C 865.08 1120  884 1138.92  884 1163  C 884 1187.08  865.08 1206  841 1206  C 816.92 1206  798 1187.08  798 1163  C 798 1138.92  816.92 1120  841 1120  Z " fill-rule="nonzero" fill="#ffffff" stroke="none" />
    <path d="M 841 1120.5  C 864.8 1120.5  883.5 1139.2  883.5 1163  C 883.5 1186.8  864.8 1205.5  841 1205.5  C 817.2 1205.5  798.5 1186.8  798.5 1163  C 798.5 1139.2  817.2 1120.5  841 1120.5  Z " stroke-width="1" stroke="#797979" fill="none" />
  </g>
</svg>