<?xml version="1.0" encoding="utf-8"?>
<svg version="1.1" xmlns:xlink="http://www.w3.org/1999/xlink" width="40px" height="40px" xmlns="http://www.w3.org/2000/svg">
  <g transform="matrix(1 0 0 1 -833 -999 )">
    <path d="M 853 999.5  C 863.92 999.5  872.5 1008.08  872.5 1019  C 872.5 1029.92  863.92 1038.5  853 1038.5  C 842.08 1038.5  833.5 1029.92  833.5 1019  C 833.5 1008.08  842.08 999.5  853 999.5  Z " fill-rule="nonzero" fill="#f3f3f3" stroke="none" />
    <path d="M 853 999.5  C 863.92 999.5  872.5 1008.08  872.5 1019  C 872.5 1029.92  863.92 1038.5  853 1038.5  C 842.08 1038.5  833.5 1029.92  833.5 1019  C 833.5 1008.08  842.08 999.5  853 999.5  Z " stroke-width="1" stroke="#000000" fill="none" stroke-opacity="0.0470588235294118" />
  </g>
</svg>