<?xml version="1.0" encoding="utf-8"?>
<svg version="1.1" xmlns:xlink="http://www.w3.org/1999/xlink" width="68px" height="68px" xmlns="http://www.w3.org/2000/svg">
  <g transform="matrix(1 0 0 1 -2336 -358 )">
    <path d="M 2337 362  A 3 3 0 0 1 2340 359 L 2400 359  A 3 3 0 0 1 2403 362 L 2403 422  A 3 3 0 0 1 2400 425 L 2340 425  A 3 3 0 0 1 2337 422 L 2337 362  Z " fill-rule="nonzero" fill="#000000" stroke="none" fill-opacity="0.0196078431372549" />
    <path d="M 2336.5 362  A 3.5 3.5 0 0 1 2340 358.5 L 2400 358.5  A 3.5 3.5 0 0 1 2403.5 362 L 2403.5 422  A 3.5 3.5 0 0 1 2400 425.5 L 2340 425.5  A 3.5 3.5 0 0 1 2336.5 422 L 2336.5 362  Z " stroke-width="1" stroke-dasharray="9,4" stroke="#d9d9d9" fill="none" stroke-dashoffset="0.5" />
  </g>
</svg>