<?xml version="1.0" encoding="utf-8"?>
<svg version="1.1" xmlns:xlink="http://www.w3.org/1999/xlink" width="71px" height="71px" xmlns="http://www.w3.org/2000/svg">
  <g transform="matrix(1 0 0 1 -258 -1656 )">
    <path d="M 293.5 1656  C 313.38 1656  329 1671.62  329 1691.5  C 329 1711.38  313.38 1727  293.5 1727  C 273.62 1727  258 1711.38  258 1691.5  C 258 1671.62  273.62 1656  293.5 1656  Z " fill-rule="nonzero" fill="#ffffff" stroke="none" />
    <path d="M 293.5 1656.5  C 313.1 1656.5  328.5 1671.9  328.5 1691.5  C 328.5 1711.1  313.1 1726.5  293.5 1726.5  C 273.9 1726.5  258.5 1711.1  258.5 1691.5  C 258.5 1671.9  273.9 1656.5  293.5 1656.5  Z " stroke-width="1" stroke="#797979" fill="none" />
  </g>
</svg>