<?xml version="1.0" encoding="utf-8"?>
<svg version="1.1" xmlns:xlink="http://www.w3.org/1999/xlink" width="152px" height="152px" xmlns="http://www.w3.org/2000/svg">
  <g transform="matrix(1 0 0 1 -673 -328 )">
    <path d="M 108.571428571429 33  L 143.857142857143 33  C 146.119047619048 32.5714285714286  148.041666666667 33.3630952380952  149.625 34.9464285714286  C 151.208333333333 36.5297619047619  152 38.4523809523809  152 40.7142857142857  L 152 143.857142857143  C 152 146.119047619048  151.208333333333 148.041666666667  149.625 149.625  C 148.041666666667 151.208333333333  146.119047619048 152  143.857142857143 152  L 62.4285714285714 152  C 60.1666666666667 152  58.2440476190476 151.208333333333  56.6607142857143 149.625  C 55.077380952381 148.041666666667  54.2857142857143 146.119047619048  55 143.857142857143  L 55 119  L 8.14285714285714 119  C 5.88095238095238 119.428571428571  3.95833333333333 118.636904761905  2.375 117.053571428571  C 0.791666666666667 115.470238095238  0 113.547619047619  0 111.285714285714  L 0 54.2857142857143  C 0 52.0238095238095  0.56547619047619 49.5357142857143  1.69642857142857 46.8214285714286  C 2.82738095238095 44.1071428571429  4.18452380952381 41.9583333333333  5.76785714285714 40.375  L 40.375 5.76785714285715  C 41.9583333333333 4.1845238095238  44.1071428571429 2.82738095238095  46.8214285714286 1.69642857142857  C 49.5357142857143 0.565476190476197  52.0238095238095 0  54.2857142857143 0  L 89.5714285714286 0  C 91.8333333333333 0  93.7559523809524 0.791666666666672  95.3392857142857 2.375  C 96.9226190476191 3.95833333333333  97.7142857142857 5.88095238095238  97 8.14285714285715  L 97 35.9642857142857  C 101.559523809524 33.7023809523809  105.178571428571 32.5714285714286  108.571428571429 33  Z M 97 76  L 97 50.6383928571429  L 72.3526785714286 76  L 97 76  Z M 44 44  L 44 18.0669642857143  L 18.0669642857143 44  L 44 44  Z M 55.9821428571429 79.3928571428572  C 57.1130952380952 76.6785714285714  58.4702380952381 74.5297619047619  60.0535714285714 72.9464285714286  L 86 46.1428571428571  L 86 11  L 55 11  L 55 46.1428571428571  C 54.2857142857143 48.4047619047619  53.4940476190476 50.3273809523809  51.9107142857143 51.9107142857143  C 50.327380952381 53.4940476190476  48.4047619047619 54.2857142857143  46.1428571428571 55  L 11 55  L 11 108  L 55 108  L 55 86.8571428571428  C 54.2857142857143 84.5952380952381  54.8511904761905 82.1071428571428  55.9821428571429 79.3928571428572  Z M 66 141  L 141 141  L 141 44  L 108 44  L 108 78.7142857142857  C 108.571428571429 80.9761904761905  107.779761904762 82.8988095238095  106.196428571429 84.4821428571428  C 104.613095238095 86.0654761904762  102.690476190476 86.8571428571428  100.428571428571 86  L 66 86  L 66 141  Z " fill-rule="nonzero" fill="#000000" stroke="none" transform="matrix(1 0 0 1 673 328 )" />
  </g>
</svg>