<?xml version="1.0" encoding="utf-8"?>
<svg version="1.1" xmlns:xlink="http://www.w3.org/1999/xlink" width="25px" height="21px" xmlns="http://www.w3.org/2000/svg">
  <g transform="matrix(1 0 0 1 -208 -2656 )">
    <path d="M 24.0084134615385 4.80255681818182  C 24.6694711538462 5.45880681818182  25 6.24431818181818  25 7.15909090909091  L 25 17.6590909090909  C 25 18.5738636363636  24.6694711538462 19.359375  24.0084134615385 20.015625  C 23.3473557692308 20.671875  22.5560897435897 21  21.6346153846154 21  L 3.36538461538462 21  C 2.44391025641026 21  1.65264423076923 20.671875  0.991586538461538 20.015625  C 0.330528846153846 19.359375  0 18.5738636363636  0 17.6590909090909  L 0 3.34090909090909  C 0 2.42613636363636  0.330528846153846 1.640625  0.991586538461538 0.984375  C 1.65264423076923 0.328125  2.44391025641026 0  3.36538461538462 0  L 8.17307692307692 0  C 9.09455128205128 0  9.88581730769231 0.328125  10.546875 0.984375  C 11.2079326923077 1.640625  11.5384615384615 2.42613636363636  11.5384615384615 3.34090909090909  L 11.5384615384615 4  L 21.6346153846154 4  C 22.5560897435897 3.81818181818182  23.3473557692308 4.14630681818182  24.0084134615385 4.80255681818182  Z " fill-rule="nonzero" fill="#000000" stroke="none" transform="matrix(1 0 0 1 208 2656 )" />
  </g>
</svg>