<?xml version="1.0" encoding="utf-8"?>
<svg version="1.1" xmlns:xlink="http://www.w3.org/1999/xlink" width="85px" height="71px" xmlns="http://www.w3.org/2000/svg">
  <g transform="matrix(1 0 0 1 -4363 -5434 )">
    <path d="M 77.03125 63.1335227272727  C 77.9847756410256 62.1922348484848  78.4615384615385 61.0492424242424  78 59.7045454545455  L 78 24.2045454545455  C 78.4615384615385 22.8598484848485  77.9847756410256 21.7168560606061  77.03125 20.7755681818182  C 76.0777243589744 19.8342803030303  74.9198717948718 19.3636363636364  73.5576923076923 20  L 37.5961538461538 20  C 36.2339743589744 19.3636363636364  35.0761217948718 18.8929924242424  34.1225961538462 17.9517045454545  C 33.1690705128205 17.0104166666667  32.6923076923077 15.8674242424242  32.6923076923077 14.5227272727273  L 32.6923076923077 11.2954545454545  C 32.6923076923077 9.95075757575757  32.2155448717949 8.80776515151514  31.2620192307692 7.86647727272728  C 30.3084935897436 6.92518939393939  29.150641025641 6.45454545454546  27.7884615384615 7  L 11.4423076923077 7  C 10.0801282051282 6.45454545454546  8.92227564102564 6.92518939393939  7.96875 7.86647727272728  C 7.01522435897436 8.80776515151514  6.53846153846154 9.95075757575757  7 11.2954545454545  L 7 59.7045454545455  C 6.53846153846154 61.0492424242424  7.01522435897436 62.1922348484848  7.96875 63.1335227272727  C 8.92227564102564 64.0748106060606  10.0801282051282 64.5454545454545  11.4423076923077 64  L 73.5576923076923 64  C 74.9198717948718 64.5454545454545  76.0777243589744 64.0748106060606  77.03125 63.1335227272727  Z M 81.6286057692308 16.2372159090909  C 83.8762019230769 18.4559659090909  85 21.1117424242424  85 24.2045454545455  L 85 59.7045454545455  C 85 62.7973484848485  83.8762019230769 65.453125  81.6286057692308 67.671875  C 79.3810096153846 69.890625  76.6907051282051 71  73.5576923076923 71  L 11.4423076923077 71  C 8.30929487179487 71  5.61899038461539 69.890625  3.37139423076923 67.671875  C 1.12379807692308 65.453125  0 62.7973484848485  0 59.7045454545455  L 0 11.2954545454545  C 0 8.2026515151515  1.12379807692308 5.546875  3.37139423076923 3.328125  C 5.61899038461539 1.109375  8.30929487179487 0  11.4423076923077 0  L 27.7884615384615 0  C 30.9214743589744 0  33.6117788461538 1.109375  35.859375 3.328125  C 38.1069711538462 5.546875  39.2307692307692 8.2026515151515  39.2307692307692 11.2954545454545  L 39.2307692307692 13  L 73.5576923076923 13  C 76.6907051282051 12.9090909090909  79.3810096153846 14.0184659090909  81.6286057692308 16.2372159090909  Z " fill-rule="nonzero" fill="#000000" stroke="none" transform="matrix(1 0 0 1 4363 5434 )" />
  </g>
</svg>