<?xml version="1.0" encoding="utf-8"?>
<svg version="1.1" xmlns:xlink="http://www.w3.org/1999/xlink" width="119px" height="119px" xmlns="http://www.w3.org/2000/svg">
  <g transform="matrix(1 0 0 1 -753 -6009 )">
    <path d="M 812.5 6009  C 845.82 6009  872 6035.18  872 6068.5  C 872 6101.82  845.82 6128  812.5 6128  C 779.18 6128  753 6101.82  753 6068.5  C 753 6035.18  779.18 6009  812.5 6009  Z " fill-rule="nonzero" fill="#ffffff" stroke="none" />
    <path d="M 812.5 6009.5  C 845.54 6009.5  871.5 6035.46  871.5 6068.5  C 871.5 6101.54  845.54 6127.5  812.5 6127.5  C 779.46 6127.5  753.5 6101.54  753.5 6068.5  C 753.5 6035.46  779.46 6009.5  812.5 6009.5  Z " stroke-width="1" stroke="#797979" fill="none" />
  </g>
</svg>