<?xml version="1.0" encoding="utf-8"?>
<svg version="1.1" xmlns:xlink="http://www.w3.org/1999/xlink" width="124px" height="124px" xmlns="http://www.w3.org/2000/svg">
  <g transform="matrix(1 0 0 1 -347 -6554 )">
    <path d="M 409 6554.5  C 443.44 6554.5  470.5 6581.56  470.5 6616  C 470.5 6650.44  443.44 6677.5  409 6677.5  C 374.56 6677.5  347.5 6650.44  347.5 6616  C 347.5 6581.56  374.56 6554.5  409 6554.5  Z " fill-rule="nonzero" fill="#f3f3f3" stroke="none" />
    <path d="M 409 6554.5  C 443.44 6554.5  470.5 6581.56  470.5 6616  C 470.5 6650.44  443.44 6677.5  409 6677.5  C 374.56 6677.5  347.5 6650.44  347.5 6616  C 347.5 6581.56  374.56 6554.5  409 6554.5  Z " stroke-width="1" stroke="#000000" fill="none" stroke-opacity="0.0470588235294118" />
  </g>
</svg>