<?xml version="1.0" encoding="utf-8"?>
<svg version="1.1" xmlns:xlink="http://www.w3.org/1999/xlink" width="12px" height="12px" viewBox="522 7233  12 12" xmlns="http://www.w3.org/2000/svg">
  <path d="M 528 7233  C 531.36 7233  534 7235.64  534 7239  C 534 7242.36  531.36 7245  528 7245  C 524.64 7245  522 7242.36  522 7239  C 522 7235.64  524.64 7233  528 7233  Z " fill-rule="nonzero" fill="#f0f0f0" stroke="none" />
  <path d="M 528 7233.5  C 531.08 7233.5  533.5 7235.92  533.5 7239  C 533.5 7242.08  531.08 7244.5  528 7244.5  C 524.92 7244.5  522.5 7242.08  522.5 7239  C 522.5 7235.92  524.92 7233.5  528 7233.5  Z " stroke-width="1" stroke="#797979" fill="none" />
  <path d="M 528 7242  C 526.32 7242  525 7240.68  525 7239  C 525 7237.32  526.32 7236  528 7236  C 529.68 7236  531 7237.32  531 7239  C 531 7240.68  529.68 7242  528 7242  " fill-rule="nonzero" fill="#797979" stroke="none" />
</svg>