<?xml version="1.0" encoding="utf-8"?>
<svg version="1.1" xmlns:xlink="http://www.w3.org/1999/xlink" width="12px" height="12px" viewBox="278 7233  12 12" xmlns="http://www.w3.org/2000/svg">
  <path d="M 284 7233  C 287.36 7233  290 7235.64  290 7239  C 290 7242.36  287.36 7245  284 7245  C 280.64 7245  278 7242.36  278 7239  C 278 7235.64  280.64 7233  284 7233  Z " fill-rule="nonzero" fill="#ffffff" stroke="none" />
  <path d="M 284 7233.5  C 287.08 7233.5  289.5 7235.92  289.5 7239  C 289.5 7242.08  287.08 7244.5  284 7244.5  C 280.92 7244.5  278.5 7242.08  278.5 7239  C 278.5 7235.92  280.92 7233.5  284 7233.5  Z " stroke-width="1" stroke="#797979" fill="none" />
  <path d="M 284 7242  C 282.32 7242  281 7240.68  281 7239  C 281 7237.32  282.32 7236  284 7236  C 285.68 7236  287 7237.32  287 7239  C 287 7240.68  285.68 7242  284 7242  " fill-rule="nonzero" fill="#797979" stroke="none" />
</svg>