<?xml version="1.0" encoding="utf-8"?>
<svg version="1.1" xmlns:xlink="http://www.w3.org/1999/xlink" width="12px" height="12px" viewBox="1145 7247  12 12" xmlns="http://www.w3.org/2000/svg">
  <path d="M 1151 7247  C 1154.36 7247  1157 7249.64  1157 7253  C 1157 7256.36  1154.36 7259  1151 7259  C 1147.64 7259  1145 7256.36  1145 7253  C 1145 7249.64  1147.64 7247  1151 7247  Z " fill-rule="nonzero" fill="#f0f0f0" stroke="none" />
  <path d="M 1151 7247.5  C 1154.08 7247.5  1156.5 7249.92  1156.5 7253  C 1156.5 7256.08  1154.08 7258.5  1151 7258.5  C 1147.92 7258.5  1145.5 7256.08  1145.5 7253  C 1145.5 7249.92  1147.92 7247.5  1151 7247.5  Z " stroke-width="1" stroke="#797979" fill="none" />
  <path d="M 1151 7256  C 1149.32 7256  1148 7254.68  1148 7253  C 1148 7251.32  1149.32 7250  1151 7250  C 1152.68 7250  1154 7251.32  1154 7253  C 1154 7254.68  1152.68 7256  1151 7256  " fill-rule="nonzero" fill="#797979" stroke="none" />
</svg>