<?xml version="1.0" encoding="utf-8"?>
<svg version="1.1" xmlns:xlink="http://www.w3.org/1999/xlink" width="12px" height="12px" viewBox="901 7247  12 12" xmlns="http://www.w3.org/2000/svg">
  <path d="M 907 7247  C 910.36 7247  913 7249.64  913 7253  C 913 7256.36  910.36 7259  907 7259  C 903.64 7259  901 7256.36  901 7253  C 901 7249.64  903.64 7247  907 7247  Z " fill-rule="nonzero" fill="#f0f0f0" stroke="none" />
  <path d="M 907 7247.5  C 910.08 7247.5  912.5 7249.92  912.5 7253  C 912.5 7256.08  910.08 7258.5  907 7258.5  C 903.92 7258.5  901.5 7256.08  901.5 7253  C 901.5 7249.92  903.92 7247.5  907 7247.5  Z " stroke-width="1" stroke="#797979" fill="none" />
  <path d="M 907 7256  C 905.32 7256  904 7254.68  904 7253  C 904 7251.32  905.32 7250  907 7250  C 908.68 7250  910 7251.32  910 7253  C 910 7254.68  908.68 7256  907 7256  " fill-rule="nonzero" fill="#797979" stroke="none" />
</svg>