<?xml version="1.0" encoding="utf-8"?>
<svg version="1.1" xmlns:xlink="http://www.w3.org/1999/xlink" width="45px" height="45px" xmlns="http://www.w3.org/2000/svg">
  <g transform="matrix(1 0 0 1 -622 -4514 )">
    <path d="M 644.5 4514  C 657.1 4514  667 4523.9  667 4536.5  C 667 4549.1  657.1 4559  644.5 4559  C 631.9 4559  622 4549.1  622 4536.5  C 622 4523.9  631.9 4514  644.5 4514  Z " fill-rule="nonzero" fill="#ffffff" stroke="none" />
    <path d="M 644.5 4514.5  C 656.82 4514.5  666.5 4524.18  666.5 4536.5  C 666.5 4548.82  656.82 4558.5  644.5 4558.5  C 632.18 4558.5  622.5 4548.82  622.5 4536.5  C 622.5 4524.18  632.18 4514.5  644.5 4514.5  Z " stroke-width="1" stroke="#797979" fill="none" />
  </g>
</svg>