<?xml version="1.0" encoding="utf-8"?>
<svg version="1.1" xmlns:xlink="http://www.w3.org/1999/xlink" width="37px" height="31px" xmlns="http://www.w3.org/2000/svg">
  <g transform="matrix(1 0 0 1 -362 -1024 )">
    <path d="M 35.5324519230769 7.08948863636363  C 36.5108173076923 8.05823863636363  37 9.21780303030303  37 10.5681818181818  L 37 26.0681818181818  C 37 27.4185606060606  36.5108173076923 28.578125  35.5324519230769 29.546875  C 34.5540865384615 30.515625  33.3830128205128 31  32.0192307692308 31  L 4.98076923076923 31  C 3.61698717948718 31  2.44591346153846 30.515625  1.46754807692308 29.546875  C 0.489182692307692 28.578125  0 27.4185606060606  0 26.0681818181818  L 0 4.93181818181818  C 0 3.58143939393939  0.489182692307692 2.421875  1.46754807692308 1.453125  C 2.44591346153846 0.484375  3.61698717948718 0  4.98076923076923 0  L 12.0961538461538 0  C 13.4599358974359 0  14.6310096153846 0.484375  15.609375 1.453125  C 16.5877403846154 2.421875  17.0769230769231 3.58143939393939  17.0769230769231 4.93181818181818  L 17.0769230769231 6  L 32.0192307692308 6  C 33.3830128205128 5.63636363636363  34.5540865384615 6.12073863636363  35.5324519230769 7.08948863636363  Z " fill-rule="nonzero" fill="#000000" stroke="none" transform="matrix(1 0 0 1 362 1024 )" />
  </g>
</svg>