<?xml version="1.0" encoding="utf-8"?>
<svg version="1.1" xmlns:xlink="http://www.w3.org/1999/xlink" width="180px" height="70px" xmlns="http://www.w3.org/2000/svg">
  <g transform="matrix(1 0 0 1 -686 -437 )">
    <path d="M 687 441  A 3 3 0 0 1 690 438 L 862 438  A 3 3 0 0 1 865 441 L 865 503  A 3 3 0 0 1 862 506 L 690 506  A 3 3 0 0 1 687 503 L 687 441  Z " fill-rule="nonzero" fill="#ffffff" stroke="none" />
    <path d="M 686.5 441  A 3.5 3.5 0 0 1 690 437.5 L 862 437.5  A 3.5 3.5 0 0 1 865.5 441 L 865.5 503  A 3.5 3.5 0 0 1 862 506.5 L 690 506.5  A 3.5 3.5 0 0 1 686.5 503 L 686.5 441  Z " stroke-width="1" stroke="#777777" fill="none" stroke-opacity="0.0980392156862745" />
  </g>
</svg>