<?xml version="1.0" encoding="utf-8"?>
<svg version="1.1" xmlns:xlink="http://www.w3.org/1999/xlink" width="78px" height="70px" xmlns="http://www.w3.org/2000/svg">
  <g transform="matrix(1 0 0 1 -608 -437 )">
    <path d="M 609 441  A 3 3 0 0 1 612 438 L 682 438  A 3 3 0 0 1 685 441 L 685 503  A 3 3 0 0 1 682 506 L 612 506  A 3 3 0 0 1 609 503 L 609 441  Z " fill-rule="nonzero" fill="#ffffff" stroke="none" />
    <path d="M 608.5 441  A 3.5 3.5 0 0 1 612 437.5 L 682 437.5  A 3.5 3.5 0 0 1 685.5 441 L 685.5 503  A 3.5 3.5 0 0 1 682 506.5 L 612 506.5  A 3.5 3.5 0 0 1 608.5 503 L 608.5 441  Z " stroke-width="1" stroke="#777777" fill="none" stroke-opacity="0.0980392156862745" />
  </g>
</svg>