<?xml version="1.0" encoding="utf-8"?>
<svg version="1.1" xmlns:xlink="http://www.w3.org/1999/xlink" width="130px" height="70px" xmlns="http://www.w3.org/2000/svg">
  <g transform="matrix(1 0 0 1 -1080 -437 )">
    <path d="M 1081 441  A 3 3 0 0 1 1084 438 L 1206 438  A 3 3 0 0 1 1209 441 L 1209 503  A 3 3 0 0 1 1206 506 L 1084 506  A 3 3 0 0 1 1081 503 L 1081 441  Z " fill-rule="nonzero" fill="#ffffff" stroke="none" />
    <path d="M 1080.5 441  A 3.5 3.5 0 0 1 1084 437.5 L 1206 437.5  A 3.5 3.5 0 0 1 1209.5 441 L 1209.5 503  A 3.5 3.5 0 0 1 1206 506.5 L 1084 506.5  A 3.5 3.5 0 0 1 1080.5 503 L 1080.5 441  Z " stroke-width="1" stroke="#777777" fill="none" stroke-opacity="0.0980392156862745" />
  </g>
</svg>