<?xml version="1.0" encoding="utf-8"?>
<svg version="1.1" xmlns:xlink="http://www.w3.org/1999/xlink" width="137px" height="70px" xmlns="http://www.w3.org/2000/svg">
  <g transform="matrix(1 0 0 1 -1210 -437 )">
    <path d="M 1211 441  A 3 3 0 0 1 1214 438 L 1343 438  A 3 3 0 0 1 1346 441 L 1346 503  A 3 3 0 0 1 1343 506 L 1214 506  A 3 3 0 0 1 1211 503 L 1211 441  Z " fill-rule="nonzero" fill="#ffffff" stroke="none" />
    <path d="M 1210.5 441  A 3.5 3.5 0 0 1 1214 437.5 L 1343 437.5  A 3.5 3.5 0 0 1 1346.5 441 L 1346.5 503  A 3.5 3.5 0 0 1 1343 506.5 L 1214 506.5  A 3.5 3.5 0 0 1 1210.5 503 L 1210.5 441  Z " stroke-width="1" stroke="#777777" fill="none" stroke-opacity="0.0980392156862745" />
  </g>
</svg>