<?xml version="1.0" encoding="utf-8"?>
<svg version="1.1" xmlns:xlink="http://www.w3.org/1999/xlink" width="33px" height="33px" xmlns="http://www.w3.org/2000/svg">
  <g transform="matrix(1 0 0 1 -10 -914 )">
    <path d="M 26.5 914.5  C 35.46 914.5  42.5 921.54  42.5 930.5  C 42.5 939.46  35.46 946.5  26.5 946.5  C 17.54 946.5  10.5 939.46  10.5 930.5  C 10.5 921.54  17.54 914.5  26.5 914.5  Z " fill-rule="nonzero" fill="#f3f3f3" stroke="none" />
    <path d="M 26.5 914.5  C 35.46 914.5  42.5 921.54  42.5 930.5  C 42.5 939.46  35.46 946.5  26.5 946.5  C 17.54 946.5  10.5 939.46  10.5 930.5  C 10.5 921.54  17.54 914.5  26.5 914.5  Z " stroke-width="1" stroke="#000000" fill="none" stroke-opacity="0.0470588235294118" />
  </g>
</svg>