<?xml version="1.0" encoding="utf-8"?>
<svg version="1.1" xmlns:xlink="http://www.w3.org/1999/xlink" width="214px" height="70px" xmlns="http://www.w3.org/2000/svg">
  <g transform="matrix(1 0 0 1 -866 -437 )">
    <path d="M 867 441  A 3 3 0 0 1 870 438 L 1076 438  A 3 3 0 0 1 1079 441 L 1079 503  A 3 3 0 0 1 1076 506 L 870 506  A 3 3 0 0 1 867 503 L 867 441  Z " fill-rule="nonzero" fill="#ffffff" stroke="none" />
    <path d="M 866.5 441  A 3.5 3.5 0 0 1 870 437.5 L 1076 437.5  A 3.5 3.5 0 0 1 1079.5 441 L 1079.5 503  A 3.5 3.5 0 0 1 1076 506.5 L 870 506.5  A 3.5 3.5 0 0 1 866.5 503 L 866.5 441  Z " stroke-width="1" stroke="#777777" fill="none" stroke-opacity="0.0980392156862745" />
  </g>
</svg>