<?xml version="1.0" encoding="utf-8"?>
<svg version="1.1" xmlns:xlink="http://www.w3.org/1999/xlink" width="109px" height="70px" xmlns="http://www.w3.org/2000/svg">
  <g transform="matrix(1 0 0 1 -392 -437 )">
    <path d="M 393 441  A 3 3 0 0 1 396 438 L 497 438  A 3 3 0 0 1 500 441 L 500 503  A 3 3 0 0 1 497 506 L 396 506  A 3 3 0 0 1 393 503 L 393 441  Z " fill-rule="nonzero" fill="#ffffff" stroke="none" />
    <path d="M 392.5 441  A 3.5 3.5 0 0 1 396 437.5 L 497 437.5  A 3.5 3.5 0 0 1 500.5 441 L 500.5 503  A 3.5 3.5 0 0 1 497 506.5 L 396 506.5  A 3.5 3.5 0 0 1 392.5 503 L 392.5 441  Z " stroke-width="1" stroke="#777777" fill="none" stroke-opacity="0.0980392156862745" />
  </g>
</svg>