<?xml version="1.0" encoding="utf-8"?>
<svg version="1.1" xmlns:xlink="http://www.w3.org/1999/xlink" width="76px" height="70px" xmlns="http://www.w3.org/2000/svg">
  <g transform="matrix(1 0 0 1 -1347 -437 )">
    <path d="M 1348 441  A 3 3 0 0 1 1351 438 L 1419 438  A 3 3 0 0 1 1422 441 L 1422 503  A 3 3 0 0 1 1419 506 L 1351 506  A 3 3 0 0 1 1348 503 L 1348 441  Z " fill-rule="nonzero" fill="#ffffff" stroke="none" />
    <path d="M 1347.5 441  A 3.5 3.5 0 0 1 1351 437.5 L 1419 437.5  A 3.5 3.5 0 0 1 1422.5 441 L 1422.5 503  A 3.5 3.5 0 0 1 1419 506.5 L 1351 506.5  A 3.5 3.5 0 0 1 1347.5 503 L 1347.5 441  Z " stroke-width="1" stroke="#777777" fill="none" stroke-opacity="0.0980392156862745" />
  </g>
</svg>