<?xml version="1.0" encoding="utf-8"?>
<svg version="1.1" xmlns:xlink="http://www.w3.org/1999/xlink" width="104px" height="70px" xmlns="http://www.w3.org/2000/svg">
  <g transform="matrix(1 0 0 1 -1423 -437 )">
    <path d="M 1424 441  A 3 3 0 0 1 1427 438 L 1523 438  A 3 3 0 0 1 1526 441 L 1526 503  A 3 3 0 0 1 1523 506 L 1427 506  A 3 3 0 0 1 1424 503 L 1424 441  Z " fill-rule="nonzero" fill="#ffffff" stroke="none" />
    <path d="M 1423.5 441  A 3.5 3.5 0 0 1 1427 437.5 L 1523 437.5  A 3.5 3.5 0 0 1 1526.5 441 L 1526.5 503  A 3.5 3.5 0 0 1 1523 506.5 L 1427 506.5  A 3.5 3.5 0 0 1 1423.5 503 L 1423.5 441  Z " stroke-width="1" stroke="#777777" fill="none" stroke-opacity="0.0980392156862745" />
  </g>
</svg>