<?xml version="1.0" encoding="utf-8"?>
<svg version="1.1" xmlns:xlink="http://www.w3.org/1999/xlink" width="12px" height="12px" viewBox="2511 888  12 12" xmlns="http://www.w3.org/2000/svg">
  <path d="M 2517 888  C 2520.36 888  2523 890.64  2523 894  C 2523 897.36  2520.36 900  2517 900  C 2513.64 900  2511 897.36  2511 894  C 2511 890.64  2513.64 888  2517 888  Z " fill-rule="nonzero" fill="#ffffff" stroke="none" />
  <path d="M 2517 888.5  C 2520.08 888.5  2522.5 890.92  2522.5 894  C 2522.5 897.08  2520.08 899.5  2517 899.5  C 2513.92 899.5  2511.5 897.08  2511.5 894  C 2511.5 890.92  2513.92 888.5  2517 888.5  Z " stroke-width="1" stroke="#797979" fill="none" />
  <path d="M 2517 897  C 2515.32 897  2514 895.68  2514 894  C 2514 892.32  2515.32 891  2517 891  C 2518.68 891  2520 892.32  2520 894  C 2520 895.68  2518.68 897  2517 897  " fill-rule="nonzero" fill="#797979" stroke="none" />
</svg>