<?xml version="1.0" encoding="utf-8"?>
<svg version="1.1" xmlns:xlink="http://www.w3.org/1999/xlink" width="12px" height="12px" viewBox="2433 888  12 12" xmlns="http://www.w3.org/2000/svg">
  <path d="M 2439 888  C 2442.36 888  2445 890.64  2445 894  C 2445 897.36  2442.36 900  2439 900  C 2435.64 900  2433 897.36  2433 894  C 2433 890.64  2435.64 888  2439 888  Z " fill-rule="nonzero" fill="#ffffff" stroke="none" />
  <path d="M 2439 888.5  C 2442.08 888.5  2444.5 890.92  2444.5 894  C 2444.5 897.08  2442.08 899.5  2439 899.5  C 2435.92 899.5  2433.5 897.08  2433.5 894  C 2433.5 890.92  2435.92 888.5  2439 888.5  Z " stroke-width="1" stroke="#797979" fill="none" />
  <path d="M 2439 897  C 2437.32 897  2436 895.68  2436 894  C 2436 892.32  2437.32 891  2439 891  C 2440.68 891  2442 892.32  2442 894  C 2442 895.68  2440.68 897  2439 897  " fill-rule="nonzero" fill="#797979" stroke="none" />
</svg>