<?xml version="1.0" encoding="utf-8"?>
<svg version="1.1" xmlns:xlink="http://www.w3.org/1999/xlink" width="12px" height="12px" viewBox="2579 889  12 12" xmlns="http://www.w3.org/2000/svg">
  <path d="M 2585 889  C 2588.36 889  2591 891.64  2591 895  C 2591 898.36  2588.36 901  2585 901  C 2581.64 901  2579 898.36  2579 895  C 2579 891.64  2581.64 889  2585 889  Z " fill-rule="nonzero" fill="#ffffff" stroke="none" />
  <path d="M 2585 889.5  C 2588.08 889.5  2590.5 891.92  2590.5 895  C 2590.5 898.08  2588.08 900.5  2585 900.5  C 2581.92 900.5  2579.5 898.08  2579.5 895  C 2579.5 891.92  2581.92 889.5  2585 889.5  Z " stroke-width="1" stroke="#797979" fill="none" />
  <path d="M 2585 898  C 2583.32 898  2582 896.68  2582 895  C 2582 893.32  2583.32 892  2585 892  C 2586.68 892  2588 893.32  2588 895  C 2588 896.68  2586.68 898  2585 898  " fill-rule="nonzero" fill="#797979" stroke="none" />
</svg>