<?xml version="1.0" encoding="utf-8"?>
<svg version="1.1" xmlns:xlink="http://www.w3.org/1999/xlink" width="104px" height="104px" xmlns="http://www.w3.org/2000/svg">
  <g transform="matrix(1 0 0 1 -2375 -888 )">
    <path d="M 2376 892  A 3 3 0 0 1 2379 889 L 2475 889  A 3 3 0 0 1 2478 892 L 2478 988  A 3 3 0 0 1 2475 991 L 2379 991  A 3 3 0 0 1 2376 988 L 2376 892  Z " fill-rule="nonzero" fill="#000000" stroke="none" fill-opacity="0.0196078431372549" />
    <path d="M 2375.5 892  A 3.5 3.5 0 0 1 2379 888.5 L 2475 888.5  A 3.5 3.5 0 0 1 2478.5 892 L 2478.5 988  A 3.5 3.5 0 0 1 2475 991.5 L 2379 991.5  A 3.5 3.5 0 0 1 2375.5 988 L 2375.5 892  Z " stroke-width="1" stroke-dasharray="9,4" stroke="#d9d9d9" fill="none" stroke-dashoffset="0.5" />
  </g>
</svg>