<?xml version="1.0" encoding="utf-8"?>
<svg version="1.1" xmlns:xlink="http://www.w3.org/1999/xlink" width="99px" height="70px" xmlns="http://www.w3.org/2000/svg">
  <g transform="matrix(1 0 0 1 -501 -437 )">
    <path d="M 502 441  A 3 3 0 0 1 505 438 L 596 438  A 3 3 0 0 1 599 441 L 599 503  A 3 3 0 0 1 596 506 L 505 506  A 3 3 0 0 1 502 503 L 502 441  Z " fill-rule="nonzero" fill="#ffffff" stroke="none" />
    <path d="M 501.5 441  A 3.5 3.5 0 0 1 505 437.5 L 596 437.5  A 3.5 3.5 0 0 1 599.5 441 L 599.5 503  A 3.5 3.5 0 0 1 596 506.5 L 505 506.5  A 3.5 3.5 0 0 1 501.5 503 L 501.5 441  Z " stroke-width="1" stroke="#777777" fill="none" stroke-opacity="0.0980392156862745" />
  </g>
</svg>