<?xml version="1.0" encoding="utf-8"?>
<svg version="1.1" xmlns:xlink="http://www.w3.org/1999/xlink" width="104px" height="104px" xmlns="http://www.w3.org/2000/svg">
  <g transform="matrix(1 0 0 1 -2337 -446 )">
    <path d="M 2338 450  A 3 3 0 0 1 2341 447 L 2437 447  A 3 3 0 0 1 2440 450 L 2440 546  A 3 3 0 0 1 2437 549 L 2341 549  A 3 3 0 0 1 2338 546 L 2338 450  Z " fill-rule="nonzero" fill="#000000" stroke="none" fill-opacity="0.0196078431372549" />
    <path d="M 2337.5 450  A 3.5 3.5 0 0 1 2341 446.5 L 2437 446.5  A 3.5 3.5 0 0 1 2440.5 450 L 2440.5 546  A 3.5 3.5 0 0 1 2437 549.5 L 2341 549.5  A 3.5 3.5 0 0 1 2337.5 546 L 2337.5 450  Z " stroke-width="1" stroke-dasharray="9,4" stroke="#d9d9d9" fill="none" stroke-dashoffset="0.5" />
  </g>
</svg>