<?xml version="1.0" encoding="utf-8"?>
<svg version="1.1" xmlns:xlink="http://www.w3.org/1999/xlink" width="106px" height="70px" xmlns="http://www.w3.org/2000/svg">
  <g transform="matrix(1 0 0 1 -1317 -437 )">
    <path d="M 1318 441  A 3 3 0 0 1 1321 438 L 1419 438  A 3 3 0 0 1 1422 441 L 1422 503  A 3 3 0 0 1 1419 506 L 1321 506  A 3 3 0 0 1 1318 503 L 1318 441  Z " fill-rule="nonzero" fill="#ffffff" stroke="none" />
    <path d="M 1317.5 441  A 3.5 3.5 0 0 1 1321 437.5 L 1419 437.5  A 3.5 3.5 0 0 1 1422.5 441 L 1422.5 503  A 3.5 3.5 0 0 1 1419 506.5 L 1321 506.5  A 3.5 3.5 0 0 1 1317.5 503 L 1317.5 441  Z " stroke-width="1" stroke="#777777" fill="none" stroke-opacity="0.0980392156862745" />
  </g>
</svg>