<?xml version="1.0" encoding="utf-8"?>
<svg version="1.1" xmlns:xlink="http://www.w3.org/1999/xlink" width="116px" height="70px" xmlns="http://www.w3.org/2000/svg">
  <g transform="matrix(1 0 0 1 -600 -437 )">
    <path d="M 601 441  A 3 3 0 0 1 604 438 L 712 438  A 3 3 0 0 1 715 441 L 715 503  A 3 3 0 0 1 712 506 L 604 506  A 3 3 0 0 1 601 503 L 601 441  Z " fill-rule="nonzero" fill="#ffffff" stroke="none" />
    <path d="M 600.5 441  A 3.5 3.5 0 0 1 604 437.5 L 712 437.5  A 3.5 3.5 0 0 1 715.5 441 L 715.5 503  A 3.5 3.5 0 0 1 712 506.5 L 604 506.5  A 3.5 3.5 0 0 1 600.5 503 L 600.5 441  Z " stroke-width="1" stroke="#777777" fill="none" stroke-opacity="0.0980392156862745" />
  </g>
</svg>