<?xml version="1.0" encoding="utf-8"?>
<svg version="1.1" xmlns:xlink="http://www.w3.org/1999/xlink" width="69px" height="69px" xmlns="http://www.w3.org/2000/svg">
  <g transform="matrix(1 0 0 1 -393 -1168 )">
    <path d="M 427.5 1168  C 446.82 1168  462 1183.18  462 1202.5  C 462 1221.82  446.82 1237  427.5 1237  C 408.18 1237  393 1221.82  393 1202.5  C 393 1183.18  408.18 1168  427.5 1168  Z " fill-rule="nonzero" fill="#ffffff" stroke="none" />
    <path d="M 427.5 1168.5  C 446.54 1168.5  461.5 1183.46  461.5 1202.5  C 461.5 1221.54  446.54 1236.5  427.5 1236.5  C 408.46 1236.5  393.5 1221.54  393.5 1202.5  C 393.5 1183.46  408.46 1168.5  427.5 1168.5  Z " stroke-width="1" stroke="#797979" fill="none" />
  </g>
</svg>