<?xml version="1.0" encoding="utf-8"?>
<svg version="1.1" xmlns:xlink="http://www.w3.org/1999/xlink" width="22px" height="20px" xmlns="http://www.w3.org/2000/svg">
  <g transform="matrix(1 0 0 1 -333 -179 )">
    <path d="M 21.1274038461538 4.57386363636363  C 21.7091346153846 5.19886363636363  22 5.9469696969697  22 6.81818181818182  L 22 16.8181818181818  C 22 17.6893939393939  21.7091346153846 18.4375  21.1274038461538 19.0625  C 20.5456730769231 19.6875  19.849358974359 20  19.0384615384615 20  L 2.96153846153846 20  C 2.15064102564103 20  1.45432692307692 19.6875  0.872596153846154 19.0625  C 0.290865384615385 18.4375  0 17.6893939393939  0 16.8181818181818  L 0 3.18181818181818  C 0 2.31060606060606  0.290865384615385 1.5625  0.872596153846154 0.9375  C 1.45432692307692 0.3125  2.15064102564103 0  2.96153846153846 0  L 7.19230769230769 0  C 8.00320512820513 0  8.69951923076923 0.3125  9.28125 0.9375  C 9.86298076923077 1.5625  10.1538461538462 2.31060606060606  10.1538461538462 3.18181818181818  L 10.1538461538462 3.63636363636364  L 19.0384615384615 3.63636363636364  C 19.849358974359 3.63636363636364  20.5456730769231 3.94886363636364  21.1274038461538 4.57386363636363  Z " fill-rule="nonzero" fill="#000000" stroke="none" transform="matrix(1 0 0 1 333 179 )" />
  </g>
</svg>