<?xml version="1.0" encoding="utf-8"?>
<svg version="1.1" xmlns:xlink="http://www.w3.org/1999/xlink" width="21px" height="13px" xmlns="http://www.w3.org/2000/svg">
  <g transform="matrix(1 0 0 1 -1135 -187 )">
    <path d="M 0.52294921875 9.023828125  C 0.17431640625 8.221484375  0 7.38020833333333  0 6.5  C 0 5.61979166666667  0.17431640625 4.778515625  0.52294921875 3.976171875  C 0.87158203125 3.173828125  1.338134765625 2.483203125  1.922607421875 1.904296875  C 2.507080078125 1.325390625  3.204345703125 0.86328125  4.014404296875 0.517968749999999  C 4.824462890625 0.17265625  5.673828125 0  6.5625 0  L 14.4375 0  C 15.326171875 0  16.175537109375 0.17265625  16.985595703125 0.517968749999999  C 17.795654296875 0.86328125  18.492919921875 1.325390625  19.077392578125 1.904296875  C 19.661865234375 2.483203125  20.12841796875 3.173828125  20.47705078125 3.976171875  C 20.82568359375 4.778515625  21 5.61979166666667  21 6.5  C 21 7.38020833333333  20.82568359375 8.221484375  20.47705078125 9.023828125  C 20.12841796875 9.826171875  19.661865234375 10.516796875  19.077392578125 11.095703125  C 18.492919921875 11.674609375  17.795654296875 12.13671875  16.985595703125 12.48203125  C 16.175537109375 12.82734375  15.326171875 13  14.4375 13  L 6.5625 13  C 5.673828125 13  4.824462890625 12.82734375  4.014404296875 12.48203125  C 3.204345703125 12.13671875  2.507080078125 11.674609375  1.922607421875 11.095703125  C 1.338134765625 10.516796875  0.87158203125 9.826171875  0.52294921875 9.023828125  Z M 12.402099609375 11.288671875  C 13.048095703125 11.562890625  13.7265625 11.7  14.4375 11.7  C 15.1484375 11.7  15.826904296875 11.562890625  16.472900390625 11.288671875  C 17.118896484375 11.014453125  17.677734375 10.64375  18.1494140625 10.1765625  C 18.62109375 9.709375  18.995361328125 9.155859375  19.272216796875 8.516015625  C 19.549072265625 7.876171875  19.6875 7.20416666666667  19.6875 6.5  C 19.6875 5.79583333333333  19.549072265625 5.123828125  19.272216796875 4.483984375  C 18.995361328125 3.844140625  18.62109375 3.290625  18.1494140625 2.8234375  C 17.677734375 2.35625  17.118896484375 1.985546875  16.472900390625 1.711328125  C 15.826904296875 1.437109375  15.1484375 1.3  14.4375 1.3  C 13.7265625 1.3  13.048095703125 1.437109375  12.402099609375 1.711328125  C 11.756103515625 1.985546875  11.197265625 2.35625  10.7255859375 2.8234375  C 10.25390625 3.290625  9.879638671875 3.844140625  9.602783203125 4.483984375  C 9.325927734375 5.123828125  9.1875 5.79583333333333  9.1875 6.5  C 9.1875 7.20416666666667  9.325927734375 7.876171875  9.602783203125 8.516015625  C 9.879638671875 9.155859375  10.25390625 9.709375  10.7255859375 10.1765625  C 11.197265625 10.64375  11.756103515625 11.014453125  12.402099609375 11.288671875  Z " fill-rule="nonzero" fill="#000000" stroke="none" transform="matrix(1 0 0 1 1135 187 )" />
  </g>
</svg>