<?xml version="1.0" encoding="utf-8"?>
<svg version="1.1" xmlns:xlink="http://www.w3.org/1999/xlink" width="148px" height="124px" xmlns="http://www.w3.org/2000/svg">
  <g transform="matrix(1 0 0 1 -333 -259 )">
    <path d="M 134.125 110.261363636364  C 135.785256410256 108.617424242424  136.615384615385 106.621212121212  136 104.272727272727  L 136 42.2727272727273  C 136.615384615385 39.9242424242424  135.785256410256 37.9280303030303  134.125 36.2840909090909  C 132.464743589744 34.6401515151515  130.448717948718 33.8181818181818  128.076923076923 34  L 65.4615384615385 34  C 63.0897435897436 33.8181818181818  61.073717948718 32.9962121212121  59.4134615384615 31.3522727272727  C 57.7532051282051 29.7083333333333  56.9230769230769 27.7121212121212  56.9230769230769 25.3636363636364  L 56.9230769230769 19.7272727272727  C 56.9230769230769 17.3787878787879  56.0929487179487 15.3825757575757  54.4326923076923 13.7386363636364  C 52.7724358974359 12.094696969697  50.7564102564103 11.2727272727273  48.3846153846154 12  L 19.9230769230769 12  C 17.5512820512821 11.2727272727273  15.5352564102564 12.094696969697  13.875 13.7386363636364  C 12.2147435897436 15.3825757575757  11.3846153846154 17.3787878787879  12 19.7272727272727  L 12 104.272727272727  C 11.3846153846154 106.621212121212  12.2147435897436 108.617424242424  13.875 110.261363636364  C 15.5352564102564 111.905303030303  17.5512820512821 112.727272727273  19.9230769230769 112  L 128.076923076923 112  C 130.448717948718 112.727272727273  132.464743589744 111.905303030303  134.125 110.261363636364  Z M 142.129807692308 28.3579545454545  C 146.043269230769 32.2329545454545  148 36.8712121212121  148 42.2727272727273  L 148 104.272727272727  C 148 109.674242424242  146.043269230769 114.3125  142.129807692308 118.1875  C 138.216346153846 122.0625  133.532051282051 124  128.076923076923 124  L 19.9230769230769 124  C 14.4679487179487 124  9.78365384615385 122.0625  5.87019230769231 118.1875  C 1.95673076923077 114.3125  0 109.674242424242  0 104.272727272727  L 0 19.7272727272727  C 0 14.3257575757576  1.95673076923077 9.6875  5.87019230769231 5.8125  C 9.78365384615385 1.9375  14.4679487179487 0  19.9230769230769 0  L 48.3846153846154 0  C 53.8397435897436 0  58.5240384615385 1.9375  62.4375 5.8125  C 66.3509615384615 9.6875  68.3076923076923 14.3257575757576  68.3076923076923 19.7272727272727  L 68.3076923076923 23  L 128.076923076923 23  C 133.532051282051 22.5454545454545  138.216346153846 24.4829545454545  142.129807692308 28.3579545454545  Z " fill-rule="nonzero" fill="#000000" stroke="none" transform="matrix(1 0 0 1 333 259 )" />
  </g>
</svg>