<?xml version="1.0" encoding="utf-8"?>
<svg version="1.1" xmlns:xlink="http://www.w3.org/1999/xlink" width="125px" height="104px" xmlns="http://www.w3.org/2000/svg">
  <g transform="matrix(1 0 0 1 -496 -269 )">
    <path d="M 113.28125 92.4772727272727  C 114.683493589744 91.0984848484848  115.384615384615 89.4242424242424  115 87.4545454545455  L 115 35.4545454545455  C 115.384615384615 33.4848484848485  114.683493589744 31.8106060606061  113.28125 30.4318181818182  C 111.879006410256 29.0530303030303  110.176282051282 28.3636363636364  108.173076923077 29  L 55.2884615384615 29  C 53.2852564102564 28.3636363636364  51.5825320512821 27.6742424242424  50.1802884615385 26.2954545454545  C 48.7780448717949 24.9166666666667  48.0769230769231 23.2424242424242  48.0769230769231 21.2727272727273  L 48.0769230769231 16.5454545454545  C 48.0769230769231 14.5757575757576  47.3758012820513 12.9015151515151  45.9735576923077 11.5227272727273  C 44.5713141025641 10.1439393939394  42.8685897435898 9.45454545454546  40.8653846153846 10  L 16.8269230769231 10  C 14.823717948718 9.45454545454546  13.1209935897436 10.1439393939394  11.71875 11.5227272727273  C 10.3165064102564 12.9015151515151  9.61538461538462 14.5757575757576  10 16.5454545454545  L 10 87.4545454545455  C 9.61538461538462 89.4242424242424  10.3165064102564 91.0984848484848  11.71875 92.4772727272727  C 13.1209935897436 93.8560606060606  14.823717948718 94.5454545454545  16.8269230769231 94  L 108.173076923077 94  C 110.176282051282 94.5454545454545  111.879006410256 93.8560606060606  113.28125 92.4772727272727  Z M 120.042067307692 23.7840909090909  C 123.347355769231 27.0340909090909  125 30.9242424242424  125 35.4545454545455  L 125 87.4545454545455  C 125 91.9848484848485  123.347355769231 95.875  120.042067307692 99.125  C 116.736778846154 102.375  112.780448717949 104  108.173076923077 104  L 16.8269230769231 104  C 12.2195512820513 104  8.26322115384616 102.375  4.95793269230769 99.125  C 1.65264423076923 95.875  0 91.9848484848485  0 87.4545454545455  L 0 16.5454545454545  C 0 12.0151515151515  1.65264423076923 8.125  4.95793269230769 4.875  C 8.26322115384616 1.625  12.2195512820513 0  16.8269230769231 0  L 40.8653846153846 0  C 45.4727564102564 0  49.4290865384615 1.625  52.734375 4.875  C 56.0396634615385 8.125  57.6923076923077 12.0151515151515  57.6923076923077 16.5454545454545  L 57.6923076923077 19  L 108.173076923077 19  C 112.780448717949 18.9090909090909  116.736778846154 20.5340909090909  120.042067307692 23.7840909090909  Z " fill-rule="nonzero" fill="#000000" stroke="none" transform="matrix(1 0 0 1 496 269 )" />
  </g>
</svg>