<?xml version="1.0" encoding="utf-8"?>
<svg version="1.1" xmlns:xlink="http://www.w3.org/1999/xlink" width="33px" height="44px" xmlns="http://www.w3.org/2000/svg">
  <g transform="matrix(1 0 0 1 -708 -297 )">
    <path d="M 9.16666666666667 14  L 9.16666666666667 20  L 23.8333333333333 20  L 23.8333333333333 14  C 23.8333333333333 11.7916666666667  23.1171875 9.90625  21.6848958333333 8.34375  C 20.2526041666667 6.78125  18.5243055555556 6  16.5 6  C 14.4756944444444 6  12.7473958333333 6.78125  11.3151041666667 8.34375  C 9.8828125 9.90625  9.16666666666667 11.7916666666667  9.16666666666667 14  Z M 32.1979166666667 20.875  C 32.7326388888889 21.4583333333333  33 22.1666666666667  33 23  L 33 41  C 33 41.8333333333333  32.7326388888889 42.5416666666667  32.1979166666667 43.125  C 31.6631944444444 43.7083333333333  31.0138888888889 44  30.25 44  L 2.75 44  C 1.98611111111111 44  1.33680555555556 43.7083333333333  0.802083333333333 43.125  C 0.267361111111111 42.5416666666667  0 41.8333333333333  0 41  L 0 23  C 0 22.1666666666667  0.267361111111111 21.4583333333333  0.802083333333333 20.875  C 1.33680555555556 20.2916666666667  1.98611111111111 20  2.75 20  L 3.66666666666667 20  L 3.66666666666667 14  C 3.66666666666667 10.1666666666667  4.92708333333333 6.875  7.44791666666667 4.125  C 9.96875 1.375  12.9861111111111 0  16.5 0  C 20.0138888888889 0  23.03125 1.375  25.5520833333333 4.125  C 28.0729166666667 6.875  29.3333333333333 10.1666666666667  29.3333333333333 14  L 29.3333333333333 20  L 30.25 20  C 31.0138888888889 20  31.6631944444444 20.2916666666667  32.1979166666667 20.875  Z " fill-rule="nonzero" fill="#000000" stroke="none" transform="matrix(1 0 0 1 708 297 )" />
  </g>
</svg>