<?xml version="1.0" encoding="utf-8"?>
<svg version="1.1" xmlns:xlink="http://www.w3.org/1999/xlink" width="32px" height="34px" xmlns="http://www.w3.org/2000/svg">
  <g transform="matrix(1 0 0 1 -985 -298 )">
    <path d="M 29 30.2329545454545  C 29.3589743589744 29.782196969697  29.5384615384615 29.2348484848485  29 28.5909090909091  L 29 11.5909090909091  C 29.5384615384615 10.9469696969697  29.3589743589744 10.3996212121212  29 9.94886363636364  C 28.6410256410256 9.49810606060606  28.2051282051282 9.27272727272727  27.6923076923077 9.27272727272727  L 14.1538461538462 9.27272727272727  C 13.6410256410256 9.27272727272727  13.2051282051282 9.04734848484848  12.8461538461538 8.59659090909091  C 12.4871794871795 8.14583333333333  12.3076923076923 7.59848484848485  12.3076923076923 6.95454545454546  L 12.3076923076923 5.40909090909091  C 12.3076923076923 4.76515151515151  12.1282051282051 4.21780303030303  11.7692307692308 3.76704545454546  C 11.4102564102564 3.31628787878788  10.974358974359 3.09090909090909  10.4615384615385 3.09090909090909  L 4.30769230769231 3.09090909090909  C 3.7948717948718 3.09090909090909  3.35897435897436 3.31628787878788  3 3.76704545454546  C 2.64102564102564 4.21780303030303  2.46153846153846 4.76515151515151  3 5.40909090909091  L 3 28.5909090909091  C 2.46153846153846 29.2348484848485  2.64102564102564 29.782196969697  3 30.2329545454545  C 3.35897435897436 30.6837121212121  3.7948717948718 30.9090909090909  4.30769230769231 31  L 27.6923076923077 31  C 28.2051282051282 30.9090909090909  28.6410256410256 30.6837121212121  29 30.2329545454545  Z M 30.7307692307692 7.77556818181818  C 31.5769230769231 8.83806818181818  32 10.1098484848485  32 11.5909090909091  L 32 28.5909090909091  C 32 30.0719696969697  31.5769230769231 31.34375  30.7307692307692 32.40625  C 29.8846153846154 33.46875  28.8717948717949 34  27.6923076923077 34  L 4.30769230769231 34  C 3.12820512820513 34  2.11538461538462 33.46875  1.26923076923077 32.40625  C 0.423076923076923 31.34375  0 30.0719696969697  0 28.5909090909091  L 0 5.40909090909091  C 0 3.9280303030303  0.423076923076923 2.65625  1.26923076923077 1.59375  C 2.11538461538462 0.53125  3.12820512820513 0  4.30769230769231 0  L 10.4615384615385 0  C 11.6410256410256 0  12.6538461538462 0.53125  13.5 1.59375  C 14.3461538461538 2.65625  14.7692307692308 3.9280303030303  14.7692307692308 5.40909090909091  L 14.7692307692308 6.18181818181818  L 27.6923076923077 6.18181818181818  C 28.8717948717949 6.18181818181818  29.8846153846154 6.71306818181818  30.7307692307692 7.77556818181818  Z " fill-rule="nonzero" fill="#000000" stroke="none" transform="matrix(1 0 0 1 985 298 )" />
  </g>
</svg>