<?xml version="1.0" encoding="utf-8"?>
<svg version="1.1" xmlns:xlink="http://www.w3.org/1999/xlink" width="119px" height="109px" xmlns="http://www.w3.org/2000/svg">
  <g transform="matrix(1 0 0 1 -665 -259 )">
    <path d="M 107.84375 96.9232954545455  C 109.178685897436 95.4782196969697  109.846153846154 93.7234848484848  109 91.6590909090909  L 109 37.1590909090909  C 109.846153846154 35.094696969697  109.178685897436 33.3399621212121  107.84375 31.8948863636364  C 106.508814102564 30.4498106060606  104.887820512821 29.7272727272727  102.980769230769 30  L 52.6346153846154 30  C 50.7275641025641 29.7272727272727  49.1065705128205 29.0047348484848  47.7716346153846 27.5596590909091  C 46.4366987179487 26.1145833333333  45.7692307692308 24.3598484848485  45.7692307692308 22.2954545454546  L 45.7692307692308 17.3409090909091  C 45.7692307692308 15.2765151515152  45.1017628205128 13.5217803030303  43.7668269230769 12.0767045454546  C 42.431891025641 10.6316287878788  40.8108974358974 9.90909090909091  38.9038461538462 10  L 16.0192307692308 10  C 14.1121794871795 9.90909090909091  12.4911858974359 10.6316287878788  11.15625 12.0767045454546  C 9.8213141025641 13.5217803030303  9.15384615384616 15.2765151515152  10 17.3409090909091  L 10 91.6590909090909  C 9.15384615384616 93.7234848484848  9.8213141025641 95.4782196969697  11.15625 96.9232954545455  C 12.4911858974359 98.3683712121212  14.1121794871795 99.0909090909091  16.0192307692308 99  L 102.980769230769 99  C 104.887820512821 99.0909090909091  106.508814102564 98.3683712121212  107.84375 96.9232954545455  Z M 114.280048076923 24.9275568181818  C 117.426682692308 28.3338068181818  119 32.4109848484848  119 37.1590909090909  L 119 91.6590909090909  C 119 96.407196969697  117.426682692308 100.484375  114.280048076923 103.890625  C 111.133413461538 107.296875  107.366987179487 109  102.980769230769 109  L 16.0192307692308 109  C 11.6330128205128 109  7.86658653846154 107.296875  4.71995192307692 103.890625  C 1.57331730769231 100.484375  0 96.407196969697  0 91.6590909090909  L 0 17.3409090909091  C 0 12.592803030303  1.57331730769231 8.515625  4.71995192307692 5.109375  C 7.86658653846154 1.703125  11.6330128205128 0  16.0192307692308 0  L 38.9038461538462 0  C 43.2900641025641 0  47.0564903846154 1.703125  50.203125 5.109375  C 53.3497596153846 8.515625  54.9230769230769 12.592803030303  54.9230769230769 17.3409090909091  L 54.9230769230769 20  L 102.980769230769 20  C 107.366987179487 19.8181818181818  111.133413461538 21.5213068181818  114.280048076923 24.9275568181818  Z " fill-rule="nonzero" fill="#000000" stroke="none" transform="matrix(1 0 0 1 665 259 )" />
  </g>
</svg>