<?xml version="1.0" encoding="utf-8"?>
<svg version="1.1" xmlns:xlink="http://www.w3.org/1999/xlink" width="26px" height="23px" xmlns="http://www.w3.org/2000/svg">
  <g transform="matrix(1 0 0 1 -72 -64 )">
    <path d="M 24.96875 5.25994318181818  C 25.65625 5.97869318181818  26 6.83901515151515  26 7.84090909090909  L 26 19.3409090909091  C 26 20.342803030303  25.65625 21.203125  24.96875 21.921875  C 24.28125 22.640625  23.4583333333333 23  22.5 23  L 3.5 23  C 2.54166666666667 23  1.71875 22.640625  1.03125 21.921875  C 0.34375 21.203125  0 20.342803030303  0 19.3409090909091  L 0 3.65909090909091  C 0 2.65719696969697  0.34375 1.796875  1.03125 1.078125  C 1.71875 0.359375  2.54166666666667 0  3.5 0  L 8.5 0  C 9.45833333333333 0  10.28125 0.359375  10.96875 1.078125  C 11.65625 1.796875  12 2.65719696969697  12 3.65909090909091  L 12 4.18181818181818  L 22.5 4.18181818181818  C 23.4583333333333 4.18181818181818  24.28125 4.54119318181818  24.96875 5.25994318181818  Z " fill-rule="nonzero" fill="#000000" stroke="none" transform="matrix(1 0 0 1 72 64 )" />
  </g>
</svg>