<?xml version="1.0" encoding="utf-8"?>
<svg version="1.1" xmlns:xlink="http://www.w3.org/1999/xlink" width="23px" height="23px" xmlns="http://www.w3.org/2000/svg">
  <g transform="matrix(1 0 0 1 -22 -143 )">
    <path d="M 22 143  L 45 143  L 45 166  L 22 166  L 22 143  " fill-rule="nonzero" fill="#cccccc" stroke="none" />
    <path d="M 24 145  L 43 145  L 43 164  L 24 164  L 24 145  " fill-rule="nonzero" fill="#ffffff" stroke="none" />
    <path d="M 35.685 149.9  C 34.719 149.9  33.96 149.141  33.96 148.175  C 33.96 147.209  34.719 146.45  35.685 146.45  C 36.651 146.45  37.41 147.209  37.41 148.175  C 37.41 149.141  36.651 149.9  35.685 149.9  " fill-rule="nonzero" fill="#cccccc" stroke="none" />
    <path d="M 25 164  L 25 154.1  L 29.5 149.6  L 35.8 153.2  L 39.4 152.3  L 43 153.2  L 43 164  L 25 164  " fill-rule="nonzero" fill="#169bd5" stroke="none" />
  </g>
</svg>