<?xml version="1.0" encoding="utf-8"?>
<svg version="1.1" xmlns:xlink="http://www.w3.org/1999/xlink" width="12px" height="12px" viewBox="605 813  12 12" xmlns="http://www.w3.org/2000/svg">
  <path d="M 611 813  C 614.36 813  617 815.64  617 819  C 617 822.36  614.36 825  611 825  C 607.64 825  605 822.36  605 819  C 605 815.64  607.64 813  611 813  Z " fill-rule="nonzero" fill="#ffffff" stroke="none" />
  <path d="M 611 813.5  C 614.08 813.5  616.5 815.92  616.5 819  C 616.5 822.08  614.08 824.5  611 824.5  C 607.92 824.5  605.5 822.08  605.5 819  C 605.5 815.92  607.92 813.5  611 813.5  Z " stroke-width="1" stroke="#797979" fill="none" />
  <path d="M 611 822  C 609.32 822  608 820.68  608 819  C 608 817.32  609.32 816  611 816  C 612.68 816  614 817.32  614 819  C 614 820.68  612.68 822  611 822  " fill-rule="nonzero" fill="#797979" stroke="none" />
</svg>