<?xml version="1.0" encoding="utf-8"?>
<svg version="1.1" xmlns:xlink="http://www.w3.org/1999/xlink" width="12px" height="12px" viewBox="545 813  12 12" xmlns="http://www.w3.org/2000/svg">
  <path d="M 551 813  C 554.36 813  557 815.64  557 819  C 557 822.36  554.36 825  551 825  C 547.64 825  545 822.36  545 819  C 545 815.64  547.64 813  551 813  Z " fill-rule="nonzero" fill="#f0f0f0" stroke="none" />
  <path d="M 551 813.5  C 554.08 813.5  556.5 815.92  556.5 819  C 556.5 822.08  554.08 824.5  551 824.5  C 547.92 824.5  545.5 822.08  545.5 819  C 545.5 815.92  547.92 813.5  551 813.5  Z " stroke-width="1" stroke="#797979" fill="none" />
  <path d="M 551 822  C 549.32 822  548 820.68  548 819  C 548 817.32  549.32 816  551 816  C 552.68 816  554 817.32  554 819  C 554 820.68  552.68 822  551 822  " fill-rule="nonzero" fill="#797979" stroke="none" />
</svg>