<?xml version="1.0" encoding="utf-8"?>
<svg version="1.1" xmlns:xlink="http://www.w3.org/1999/xlink" width="12px" height="12px" viewBox="690 813  12 12" xmlns="http://www.w3.org/2000/svg">
  <path d="M 696 813  C 699.36 813  702 815.64  702 819  C 702 822.36  699.36 825  696 825  C 692.64 825  690 822.36  690 819  C 690 815.64  692.64 813  696 813  Z " fill-rule="nonzero" fill="#ffffff" stroke="none" />
  <path d="M 696 813.5  C 699.08 813.5  701.5 815.92  701.5 819  C 701.5 822.08  699.08 824.5  696 824.5  C 692.92 824.5  690.5 822.08  690.5 819  C 690.5 815.92  692.92 813.5  696 813.5  Z " stroke-width="1" stroke="#797979" fill="none" />
  <path d="M 696 822  C 694.32 822  693 820.68  693 819  C 693 817.32  694.32 816  696 816  C 697.68 816  699 817.32  699 819  C 699 820.68  697.68 822  696 822  " fill-rule="nonzero" fill="#797979" stroke="none" />
</svg>