<?xml version="1.0" encoding="utf-8"?>
<svg version="1.1" xmlns:xlink="http://www.w3.org/1999/xlink" width="12px" height="12px" viewBox="773 813  12 12" xmlns="http://www.w3.org/2000/svg">
  <path d="M 779 813  C 782.36 813  785 815.64  785 819  C 785 822.36  782.36 825  779 825  C 775.64 825  773 822.36  773 819  C 773 815.64  775.64 813  779 813  Z " fill-rule="nonzero" fill="#ffffff" stroke="none" />
  <path d="M 779 813.5  C 782.08 813.5  784.5 815.92  784.5 819  C 784.5 822.08  782.08 824.5  779 824.5  C 775.92 824.5  773.5 822.08  773.5 819  C 773.5 815.92  775.92 813.5  779 813.5  Z " stroke-width="1" stroke="#797979" fill="none" />
  <path d="M 779 822  C 777.32 822  776 820.68  776 819  C 776 817.32  777.32 816  779 816  C 780.68 816  782 817.32  782 819  C 782 820.68  780.68 822  779 822  " fill-rule="nonzero" fill="#797979" stroke="none" />
</svg>