<?xml version="1.0" encoding="utf-8"?>
<svg version="1.1" xmlns:xlink="http://www.w3.org/1999/xlink" width="42px" height="42px" xmlns="http://www.w3.org/2000/svg">
  <g transform="matrix(1 0 0 1 -1179 -1266 )">
    <path d="M 1200 1266  C 1211.76 1266  1221 1275.24  1221 1287  C 1221 1298.76  1211.76 1308  1200 1308  C 1188.24 1308  1179 1298.76  1179 1287  C 1179 1275.24  1188.24 1266  1200 1266  Z " fill-rule="nonzero" fill="#ffffff" stroke="none" />
    <path d="M 1200 1266.5  C 1211.48 1266.5  1220.5 1275.52  1220.5 1287  C 1220.5 1298.48  1211.48 1307.5  1200 1307.5  C 1188.52 1307.5  1179.5 1298.48  1179.5 1287  C 1179.5 1275.52  1188.52 1266.5  1200 1266.5  Z " stroke-width="1" stroke="#797979" fill="none" />
  </g>
</svg>