<?xml version="1.0" encoding="utf-8"?>
<svg version="1.1" xmlns:xlink="http://www.w3.org/1999/xlink" width="68px" height="68px" xmlns="http://www.w3.org/2000/svg">
  <g transform="matrix(1 0 0 1 -3304 -1508 )">
    <path d="M 3338 1508.5  C 3356.76 1508.5  3371.5 1523.24  3371.5 1542  C 3371.5 1560.76  3356.76 1575.5  3338 1575.5  C 3319.24 1575.5  3304.5 1560.76  3304.5 1542  C 3304.5 1523.24  3319.24 1508.5  3338 1508.5  Z " fill-rule="nonzero" fill="#f3f3f3" stroke="none" />
    <path d="M 3338 1508.5  C 3356.76 1508.5  3371.5 1523.24  3371.5 1542  C 3371.5 1560.76  3356.76 1575.5  3338 1575.5  C 3319.24 1575.5  3304.5 1560.76  3304.5 1542  C 3304.5 1523.24  3319.24 1508.5  3338 1508.5  Z " stroke-width="1" stroke="#000000" fill="none" stroke-opacity="0.0470588235294118" />
  </g>
</svg>