<?xml version="1.0" encoding="utf-8"?>
<svg version="1.1" xmlns:xlink="http://www.w3.org/1999/xlink" width="87px" height="61px" xmlns="http://www.w3.org/2000/svg">
  <g transform="matrix(1 0 0 1 -597 -3345 )">
    <path d="M 83.5492788461538 13.9502840909091  C 85.8497596153846 15.8565340909091  87 18.1382575757576  87 20.7954545454545  L 87 51.2954545454545  C 87 53.9526515151515  85.8497596153846 56.234375  83.5492788461538 58.140625  C 81.2487980769231 60.046875  78.4951923076923 61  75.2884615384615 61  L 11.7115384615385 61  C 8.50480769230769 61  5.75120192307692 60.046875  3.45072115384615 58.140625  C 1.15024038461538 56.234375  0 53.9526515151515  0 51.2954545454545  L 0 9.70454545454545  C 0 7.04734848484848  1.15024038461538 4.765625  3.45072115384615 2.859375  C 5.75120192307692 0.953125  8.50480769230769 0  11.7115384615385 0  L 28.4423076923077 0  C 31.6490384615385 0  34.4026442307692 0.953125  36.703125 2.859375  C 39.0036057692308 4.765625  40.1538461538462 7.04734848484848  40.1538461538462 9.70454545454545  L 40.1538461538462 11  L 75.2884615384615 11  C 78.4951923076923 11.0909090909091  81.2487980769231 12.0440340909091  83.5492788461538 13.9502840909091  Z " fill-rule="nonzero" fill="#000000" stroke="none" transform="matrix(1 0 0 1 597 3345 )" />
  </g>
</svg>