<?xml version="1.0" encoding="utf-8"?>
<svg version="1.1" xmlns:xlink="http://www.w3.org/1999/xlink" width="637px" height="216px" xmlns="http://www.w3.org/2000/svg">
  <g transform="matrix(1 0 0 1 -3328 -590 )">
    <path d="M 3646.5 590  C 3824.86 590  3965 637.52  3965 698  C 3965 758.48  3824.86 806  3646.5 806  C 3468.14 806  3328 758.48  3328 698  C 3328 637.52  3468.14 590  3646.5 590  Z " fill-rule="nonzero" fill="#ffffff" stroke="none" />
    <path d="M 3646.5 590.5  C 3824.58 590.5  3964.5 637.8  3964.5 698  C 3964.5 758.2  3824.58 805.5  3646.5 805.5  C 3468.42 805.5  3328.5 758.2  3328.5 698  C 3328.5 637.8  3468.42 590.5  3646.5 590.5  Z " stroke-width="1" stroke="#797979" fill="none" />
  </g>
</svg>