<?xml version="1.0" encoding="utf-8"?>
<svg version="1.1" xmlns:xlink="http://www.w3.org/1999/xlink" width="29px" height="22px" xmlns="http://www.w3.org/2000/svg">
  <g transform="matrix(1 0 0 1 -2104 -517 )">
    <path d="M 26.7748325892857 19.8515625  C 26.8773251488095 19.7526041666667  26.9285714285714 19.6354166666667  27 19.5  L 27 7.5  C 26.5833333333333 7.875  26.2111235119048 8.21875  25.8119419642857 8.53125  C 22.9205729166667 10.6770833333333  20.6225818452381 12.4375  18.91796875 13.8125  C 18.3677455357143 14.2604166666667  17.9200148809524 14.609375  17.5747767857143 14.859375  C 17.2295386904762 15.109375  16.762927827381 15.3619791666667  16.1749441964286 15.6171875  C 15.5869605654762 15.8723958333333  15.0340401785714 16  14.5161830357143 16  L 14.5 16  L 14.4838169642857 16  C 13.9659598214286 16  13.4130394345238 15.8723958333333  12.8250558035714 15.6171875  C 12.237072172619 15.3619791666667  11.7704613095238 15.109375  11.4252232142857 14.859375  C 11.0799851190476 14.609375  10.6322544642857 14.2604166666667  10.08203125 13.8125  C 8.37741815476191 12.4375  6.07942708333333 10.6770833333333  3.18805803571429 8.53125  C 2.78887648809524 8.21875  2.41666666666667 7.875  2 7.5  L 2 19.5  C 2.07142857142857 19.6354166666667  2.12267485119048 19.7526041666667  2.22516741071429 19.8515625  C 2.3276599702381 19.9505208333333  2.44903273809524 20  2.58928571428571 20  L 26.4107142857143 20  C 26.5509672619048 20  26.6723400297619 19.9505208333333  26.7748325892857 19.8515625  Z M 26.1760602678571 5.1328125  C 26.677734375 4.37760416666666  26.9285714285714 3.69270833333333  26.9285714285714 3.078125  L 26.9285714285714 2.90625  L 26.9285714285714 2.6953125  C 26.9285714285714 2.6953125  26.9258742559524 2.62760416666666  26.9204799107143 2.4921875  C 26.9150855654762 2.35677083333333  26.8989025297619 2.29166666666666  26.8719308035714 2.296875  C 26.844959077381 2.30208333333333  26.8152901785714 2.25520833333333  26.7829241071429 2.15625  C 26.7505580357143 2.05729166666666  26.7020089285714 2.01822916666667  26.6372767857143 2.0390625  C 26.5725446428571 2.05989583333333  26.4970238095238 2.046875  26.4107142857143 2  L 2.58928571428571 2  C 2.44903273809524 2  2.3276599702381 2.04947916666666  2.22516741071429 2.1484375  C 2.12267485119048 2.24739583333333  2.07142857142857 2.36458333333333  2.07142857142857 2.5  C 2.07142857142857 4.25  2.86439732142857 5.72916666666666  4.45033482142857 6.9375  C 6.53255208333333 8.52083333333333  8.69568452380953 10.171875  10.9397321428571 11.890625  C 11.0044642857143 11.9427083333333  11.1932663690476 12.0963541666667  11.5061383928571 12.3515625  C 11.8190104166667 12.6067708333333  12.067150297619 12.8020833333333  12.2505580357143 12.9375  C 12.4339657738095 13.0729166666667  12.6740141369048 13.2369791666667  12.970703125 13.4296875  C 13.2673921130952 13.6223958333333  13.539806547619 13.765625  13.7879464285714 13.859375  C 14.0360863095238 13.953125  14.2680431547619 14  14.4838169642857 14  L 14.5 14  L 14.5161830357143 14  C 14.7319568452381 14  14.9639136904762 13.953125  15.2120535714286 13.859375  C 15.460193452381 13.765625  15.7326078869048 13.6223958333333  16.029296875 13.4296875  C 16.3259858630952 13.2369791666667  16.5660342261905 13.0729166666667  16.7494419642857 12.9375  C 16.932849702381 12.8020833333333  17.1809895833333 12.6067708333333  17.4938616071429 12.3515625  C 17.8067336309524 12.0963541666667  17.9955357142857 11.9427083333333  18.0602678571429 11.890625  C 20.3043154761905 10.171875  22.4674479166667 8.52083333333333  24.5496651785714 6.9375  C 25.1322544642857 6.48958333333333  25.6743861607143 5.88802083333333  26.1760602678571 5.1328125  Z M 28.2393973214286 0.734374999999999  C 28.7464657738095 1.22395833333333  29 1.8125  29 2.5  L 29 19.5  C 29 20.1875  28.7464657738095 20.7760416666667  28.2393973214286 21.265625  C 27.7323288690476 21.7552083333333  27.1227678571429 22  26.4107142857143 22  L 2.58928571428571 22  C 1.87723214285714 22  1.26767113095238 21.7552083333333  0.760602678571429 21.265625  C 0.253534226190476 20.7760416666667  0 20.1875  0 19.5  L 0 2.5  C 0 1.8125  0.253534226190476 1.22395833333333  0.760602678571429 0.734374999999999  C 1.26767113095238 0.244791666666664  1.87723214285714 0  2.58928571428571 0  L 26.4107142857143 0  C 27.1227678571429 0  27.7323288690476 0.244791666666664  28.2393973214286 0.734374999999999  Z " fill-rule="nonzero" fill="#000000" stroke="none" transform="matrix(1 0 0 1 2104 517 )" />
  </g>
</svg>