<?xml version="1.0" encoding="utf-8"?>
<svg version="1.1" xmlns:xlink="http://www.w3.org/1999/xlink" width="190px" height="70px" xmlns="http://www.w3.org/2000/svg">
  <g transform="matrix(1 0 0 1 -990 -411 )">
    <path d="M 991 415  A 3 3 0 0 1 994 412 L 1176 412  A 3 3 0 0 1 1179 415 L 1179 477  A 3 3 0 0 1 1176 480 L 994 480  A 3 3 0 0 1 991 477 L 991 415  Z " fill-rule="nonzero" fill="#ffffff" stroke="none" />
    <path d="M 990.5 415  A 3.5 3.5 0 0 1 994 411.5 L 1176 411.5  A 3.5 3.5 0 0 1 1179.5 415 L 1179.5 477  A 3.5 3.5 0 0 1 1176 480.5 L 994 480.5  A 3.5 3.5 0 0 1 990.5 477 L 990.5 415  Z " stroke-width="1" stroke="#777777" fill="none" stroke-opacity="0.0980392156862745" />
  </g>
</svg>