<?xml version="1.0" encoding="utf-8"?>
<svg version="1.1" xmlns:xlink="http://www.w3.org/1999/xlink" width="150px" height="70px" xmlns="http://www.w3.org/2000/svg">
  <g transform="matrix(1 0 0 1 -403 -411 )">
    <path d="M 404 415  A 3 3 0 0 1 407 412 L 549 412  A 3 3 0 0 1 552 415 L 552 477  A 3 3 0 0 1 549 480 L 407 480  A 3 3 0 0 1 404 477 L 404 415  Z " fill-rule="nonzero" fill="#ffffff" stroke="none" />
    <path d="M 403.5 415  A 3.5 3.5 0 0 1 407 411.5 L 549 411.5  A 3.5 3.5 0 0 1 552.5 415 L 552.5 477  A 3.5 3.5 0 0 1 549 480.5 L 407 480.5  A 3.5 3.5 0 0 1 403.5 477 L 403.5 415  Z " stroke-width="1" stroke="#777777" fill="none" stroke-opacity="0.0980392156862745" />
  </g>
</svg>