<?xml version="1.0" encoding="utf-8"?>
<svg version="1.1" xmlns:xlink="http://www.w3.org/1999/xlink" width="151px" height="70px" xmlns="http://www.w3.org/2000/svg">
  <g transform="matrix(1 0 0 1 -647 -411 )">
    <path d="M 648 415  A 3 3 0 0 1 651 412 L 794 412  A 3 3 0 0 1 797 415 L 797 477  A 3 3 0 0 1 794 480 L 651 480  A 3 3 0 0 1 648 477 L 648 415  Z " fill-rule="nonzero" fill="#ffffff" stroke="none" />
    <path d="M 647.5 415  A 3.5 3.5 0 0 1 651 411.5 L 794 411.5  A 3.5 3.5 0 0 1 797.5 415 L 797.5 477  A 3.5 3.5 0 0 1 794 480.5 L 651 480.5  A 3.5 3.5 0 0 1 647.5 477 L 647.5 415  Z " stroke-width="1" stroke="#777777" fill="none" stroke-opacity="0.0980392156862745" />
  </g>
</svg>