<?xml version="1.0" encoding="utf-8"?>
<svg version="1.1" xmlns:xlink="http://www.w3.org/1999/xlink" width="192px" height="70px" xmlns="http://www.w3.org/2000/svg">
  <g transform="matrix(1 0 0 1 -798 -411 )">
    <path d="M 799 415  A 3 3 0 0 1 802 412 L 986 412  A 3 3 0 0 1 989 415 L 989 477  A 3 3 0 0 1 986 480 L 802 480  A 3 3 0 0 1 799 477 L 799 415  Z " fill-rule="nonzero" fill="#ffffff" stroke="none" />
    <path d="M 798.5 415  A 3.5 3.5 0 0 1 802 411.5 L 986 411.5  A 3.5 3.5 0 0 1 989.5 415 L 989.5 477  A 3.5 3.5 0 0 1 986 480.5 L 802 480.5  A 3.5 3.5 0 0 1 798.5 477 L 798.5 415  Z " stroke-width="1" stroke="#777777" fill="none" stroke-opacity="0.0980392156862745" />
  </g>
</svg>