<?xml version="1.0" encoding="utf-8"?>
<svg version="1.1" xmlns:xlink="http://www.w3.org/1999/xlink" width="88px" height="70px" xmlns="http://www.w3.org/2000/svg">
  <g transform="matrix(1 0 0 1 -1321 -411 )">
    <path d="M 1322 415  A 3 3 0 0 1 1325 412 L 1405 412  A 3 3 0 0 1 1408 415 L 1408 477  A 3 3 0 0 1 1405 480 L 1325 480  A 3 3 0 0 1 1322 477 L 1322 415  Z " fill-rule="nonzero" fill="#ffffff" stroke="none" />
    <path d="M 1321.5 415  A 3.5 3.5 0 0 1 1325 411.5 L 1405 411.5  A 3.5 3.5 0 0 1 1408.5 415 L 1408.5 477  A 3.5 3.5 0 0 1 1405 480.5 L 1325 480.5  A 3.5 3.5 0 0 1 1321.5 477 L 1321.5 415  Z " stroke-width="1" stroke="#777777" fill="none" stroke-opacity="0.0980392156862745" />
  </g>
</svg>