<?xml version="1.0" encoding="utf-8"?>
<svg version="1.1" xmlns:xlink="http://www.w3.org/1999/xlink" width="26px" height="32px" xmlns="http://www.w3.org/2000/svg">
  <g transform="matrix(1 0 0 1 -752 -3265 )">
    <path d="M 7.22222222222222 10.1818181818182  L 7.22222222222222 15  L 18.7777777777778 15  L 18.7777777777778 10.1818181818182  C 18.7777777777778 8.57575757575757  18.2135416666667 7.20454545454545  17.0850694444444 6.06818181818182  C 15.9565972222222 4.93181818181818  14.5949074074074 4.36363636363636  13 4.36363636363636  C 11.4050925925926 4.36363636363636  10.0434027777778 4.93181818181818  8.91493055555556 6.06818181818182  C 7.78645833333333 7.20454545454545  7.22222222222222 8.57575757575757  7.22222222222222 10.1818181818182  Z M 25.3680555555556 15.1818181818182  C 25.7893518518519 15.6060606060606  26 16.1212121212121  26 16.7272727272727  L 26 29.8181818181818  C 26 30.4242424242424  25.7893518518519 30.9393939393939  25.3680555555556 31.3636363636364  C 24.9467592592593 31.7878787878788  24.4351851851852 32  23.8333333333333 32  L 2.16666666666667 32  C 1.56481481481482 32  1.05324074074074 31.7878787878788  0.631944444444444 31.3636363636364  C 0.210648148148148 30.9393939393939  0 30.4242424242424  0 29.8181818181818  L 0 16.7272727272727  C 0 16.1212121212121  0.210648148148148 15.6060606060606  0.631944444444444 15.1818181818182  C 1.05324074074074 14.7575757575758  1.56481481481482 14.5454545454545  2.16666666666667 14.5454545454545  L 2.88888888888889 14.5454545454545  L 2.88888888888889 10.1818181818182  C 2.88888888888889 7.39393939393939  3.88194444444444 5  5.86805555555556 3  C 7.85416666666667 1  10.2314814814815 0  13 0  C 15.7685185185185 0  18.1458333333333 1  20.1319444444444 3  C 22.1180555555556 5  23.1111111111111 7.39393939393939  23.1111111111111 10.1818181818182  L 23.1111111111111 14.5454545454545  L 23.8333333333333 14.5454545454545  C 24.4351851851852 14.5454545454545  24.9467592592593 14.7575757575758  25.3680555555556 15.1818181818182  Z " fill-rule="nonzero" fill="#000000" stroke="none" transform="matrix(1 0 0 1 752 3265 )" />
  </g>
</svg>