<?xml version="1.0" encoding="utf-8"?>
<svg version="1.1" xmlns:xlink="http://www.w3.org/1999/xlink" width="24px" height="41px" xmlns="http://www.w3.org/2000/svg">
  <g transform="matrix(1 0 0 1 -752 -3172 )">
    <path d="M 13.765625 38.709765625  C 14.2552083333333 38.2079427083333  14.5 37.6046875  14.5 36.9  C 14.5 36.1953125  14.2552083333333 35.5920572916667  13.765625 35.090234375  C 13.2760416666667 34.5884114583333  12.6875 34.3375  12 34.3375  C 11.3125 34.3375  10.7239583333333 34.5884114583333  10.234375 35.090234375  C 9.74479166666667 35.5920572916667  9.5 36.1953125  9.5 36.9  C 9.5 37.6046875  9.74479166666667 38.2079427083333  10.234375 38.709765625  C 10.7239583333333 39.2115885416667  11.3125 39.4625  12 39.4625  C 12.6875 39.4625  13.2760416666667 39.2115885416667  13.765625 38.709765625  Z M 20.703125 32.495703125  C 20.9010416666667 32.2928385416667  21 32.0526041666667  21 31.775  L 21 9.225  C 21 8.94739583333333  20.9010416666667 8.70716145833333  20.703125 8.504296875  C 20.5052083333333 8.30143229166666  20.2708333333333 8.2  20 9  L 4 9  C 3.72916666666667 8.2  3.49479166666667 8.30143229166666  3.296875 8.504296875  C 3.09895833333333 8.70716145833333  3 8.94739583333333  3 9.225  L 3 31.775  C 3 32.0526041666667  3.09895833333333 32.2928385416667  3.296875 32.495703125  C 3.49479166666667 32.6985677083333  3.72916666666667 32.8  4 32  L 20 32  C 20.2708333333333 32.8  20.5052083333333 32.6985677083333  20.703125 32.495703125  Z M 14.5 5.125  C 14.8333333333333 5.125  15 4.95416666666666  15 4.6125  C 15 4.27083333333333  14.8333333333333 4.1  14.5 4.1  L 9.5 4.1  C 9.16666666666667 4.1  9 4.27083333333333  9 4.6125  C 9 4.95416666666666  9.16666666666667 5.125  9.5 5.125  L 14.5 5.125  Z M 22.8125 1.2171875  C 23.6041666666667 2.02864583333333  24 2.98958333333333  24 4.1  L 24 36.9  C 24 38.0104166666667  23.6041666666667 38.9713541666667  22.8125 39.7828125  C 22.0208333333333 40.5942708333333  21.0833333333333 41  20 41  L 4 41  C 2.91666666666667 41  1.97916666666667 40.5942708333333  1.1875 39.7828125  C 0.395833333333333 38.9713541666667  0 38.0104166666667  0 36.9  L 0 4.1  C 0 2.98958333333333  0.395833333333333 2.02864583333333  1.1875 1.2171875  C 1.97916666666667 0.405729166666662  2.91666666666667 0  4 0  L 20 0  C 21.0833333333333 0  22.0208333333333 0.405729166666662  22.8125 1.2171875  Z " fill-rule="nonzero" fill="#000000" stroke="none" transform="matrix(1 0 0 1 752 3172 )" />
  </g>
</svg>