<?xml version="1.0" encoding="utf-8"?>
<svg version="1.1" xmlns:xlink="http://www.w3.org/1999/xlink" width="73px" height="73px" xmlns="http://www.w3.org/2000/svg">
  <g transform="matrix(1 0 0 1 -1027 -8893 )">
    <path d="M 1063.5 8893.5  C 1083.66 8893.5  1099.5 8909.34  1099.5 8929.5  C 1099.5 8949.66  1083.66 8965.5  1063.5 8965.5  C 1043.34 8965.5  1027.5 8949.66  1027.5 8929.5  C 1027.5 8909.34  1043.34 8893.5  1063.5 8893.5  Z " fill-rule="nonzero" fill="#f3f3f3" stroke="none" />
    <path d="M 1063.5 8893.5  C 1083.66 8893.5  1099.5 8909.34  1099.5 8929.5  C 1099.5 8949.66  1083.66 8965.5  1063.5 8965.5  C 1043.34 8965.5  1027.5 8949.66  1027.5 8929.5  C 1027.5 8909.34  1043.34 8893.5  1063.5 8893.5  Z " stroke-width="1" stroke="#000000" fill="none" stroke-opacity="0.0470588235294118" />
  </g>
</svg>