<?xml version="1.0" encoding="utf-8"?>
<svg version="1.1" xmlns:xlink="http://www.w3.org/1999/xlink" width="24px" height="22px" xmlns="http://www.w3.org/2000/svg">
  <g transform="matrix(1 0 0 1 -2420 -13969 )">
    <path d="M 0 12.2380336351876  L 4.875 8.38163001293661  L 12 12.7218628719276  L 7.06730769230769 16.777490297542  L 0 12.2380336351876  Z M 16.9759615384615 17.6455368693402  L 19.0961538461538 16.2794307891332  L 19.0961538461538 17.8163001293661  L 12.0288461538462 21.9857697283312  L 12.0288461538462 22  L 12.0144230769231 21.9857697283312  L 12 22  L 12 21.9857697283312  L 4.94711538461538 17.8163001293661  L 4.94711538461538 16.2794307891332  L 7.06730769230769 17.6455368693402  L 12 13.6041397153946  L 12 13.5756791720569  L 12.0144230769231 13.5899094437257  L 12.0288461538462 13.5756791720569  L 12.0288461538462 13.6041397153946  L 16.9759615384615 17.6455368693402  Z M 0 4.53945666235446  L 7.06730769230769 0  L 12 4.05562742561449  L 4.875 8.38163001293661  L 0 4.53945666235446  Z M 12 12.7218628719276  L 19.125 8.38163001293661  L 24 12.2380336351876  L 16.9471153846154 16.777490297542  L 12 12.7218628719276  Z M 12 4.05562742561449  L 16.9471153846154 0  L 24 4.53945666235446  L 19.125 8.38163001293661  L 12 4.05562742561449  Z " fill-rule="nonzero" fill="#000000" stroke="none" transform="matrix(1 0 0 1 2420 13969 )" />
  </g>
</svg>