<?xml version="1.0" encoding="utf-8"?>
<svg version="1.1" xmlns:xlink="http://www.w3.org/1999/xlink" width="43px" height="48px" xmlns="http://www.w3.org/2000/svg">
  <g transform="matrix(1 0 0 1 -1711 -20779 )">
    <path d="M 0 26.7011642949547  L 8.734375 18.2871927554981  L 21.5 27.7567917205692  L 12.6622596153846 36.6054333764554  L 0 26.7011642949547  Z M 30.4152644230769 38.4993531694696  L 34.2139423076923 35.5187580853816  L 34.2139423076923 38.8719275549806  L 21.5516826923077 47.9689521345407  L 21.5516826923077 48  L 21.5258413461538 47.9689521345407  L 21.5 48  L 21.5 47.9689521345407  L 8.86358173076923 38.8719275549806  L 8.86358173076923 35.5187580853816  L 12.6622596153846 38.4993531694696  L 21.5 29.6817593790427  L 21.5 29.6196636481242  L 21.5258413461538 29.6507115135834  L 21.5516826923077 29.6196636481242  L 21.5516826923077 29.6817593790427  L 30.4152644230769 38.4993531694696  Z M 0 9.90426908150065  L 12.6622596153846 0  L 21.5 8.84864165588616  L 8.734375 18.2871927554981  L 0 9.90426908150065  Z M 21.5 27.7567917205692  L 34.265625 18.2871927554981  L 43 26.7011642949547  L 30.3635817307692 36.6054333764554  L 21.5 27.7567917205692  Z M 21.5 8.84864165588616  L 30.3635817307692 0  L 43 9.90426908150065  L 34.265625 18.2871927554981  L 21.5 8.84864165588616  Z " fill-rule="nonzero" fill="#000000" stroke="none" transform="matrix(1 0 0 1 1711 20779 )" />
  </g>
</svg>